<?xml version="1.0" encoding="utf-8"?>
<!-- Generator: Adobe Illustrator 24.0.0, SVG Export Plug-In . SVG Version: 6.00 Build 0)  -->
<svg version="1.1" id="Capa_1" xmlns="http://www.w3.org/2000/svg" xmlns:xlink="http://www.w3.org/1999/xlink" x="0px" y="0px"
	 viewBox="0 0 681.9 597.7" style="enable-background:new 0 0 681.9 597.7;" xml:space="preserve">
<style type="text/css">
	.st0{fill:#FFFFFF;stroke:#FFFFFF;stroke-width:5;stroke-miterlimit:10;}
	.st1{fill:none;stroke:#000000;stroke-width:14;stroke-miterlimit:10;}
</style>
<path class="st0" d="M498,2.5H183.9c-8.7,0-16.7,4.6-21.1,12.2l-157,272c-4.4,7.5-4.4,16.8,0,24.4l157,272
	c4.4,7.5,12.4,12.2,21.1,12.2H498c8.7,0,16.7-4.6,21.1-12.2l157-272c4.4-7.5,4.4-16.8,0-24.4l-157-272C514.7,7.1,506.7,2.5,498,2.5z
	"/>
<g>
	<circle class="st1" cx="340.9" cy="189" r="116.1"/>
	<path class="st1" d="M459.7,315.2c-7-6-17.1-6.9-24.9-2.1c-27.8,17-59.8,26.8-93.8,26.8s-66.1-9.7-93.8-26.8
		c-7.9-4.8-18-3.9-24.9,2.1c-40.2,34.6-67.4,86.5-72.6,145.4c-0.9,10.8,6.7,20.2,16.6,20.2h349.4c9.9,0,17.6-9.4,16.6-20.2
		C527.1,401.7,499.9,349.9,459.7,315.2z"/>
</g>
</svg>
