<?xml version="1.0" encoding="utf-8"?>
<!-- Generator: Adobe Illustrator 24.0.0, SVG Export Plug-In . SVG Version: 6.00 Build 0)  -->
<svg version="1.1" id="Capa_1" xmlns="http://www.w3.org/2000/svg" xmlns:xlink="http://www.w3.org/1999/xlink" x="0px" y="0px"
	 viewBox="0 0 512 512" style="enable-background:new 0 0 512 512;" xml:space="preserve">
<path d="M504,256C504,119,393,8,256,8S8,119,8,256s111,248,248,248S504,393,504,256z M56,256c0-110.5,89.5-200,200-200
	s200,89.5,200,200s-89.5,200-200,200S56,366.5,56,256z"/>
<path d="M384,240v32c0,6.6-5.4,12-12,12h-88v88c0,6.6-5.4,12-12,12h-32c-6.6,0-12-5.4-12-12v-88h-88c-6.6,0-12-5.4-12-12v-32
	c0-6.6,5.4-12,12-12h88v-88c0-6.6,5.4-12,12-12h32c6.6,0,12,5.4,12,12v88h88C378.6,228,384,233.4,384,240z"/>
</svg>
