<?xml version="1.0" encoding="utf-8"?>
<!-- Generator: Adobe Illustrator 24.0.0, SVG Export Plug-In . SVG Version: 6.00 Build 0)  -->
<svg version="1.1" id="Capa_1" xmlns="http://www.w3.org/2000/svg" xmlns:xlink="http://www.w3.org/1999/xlink" x="0px" y="0px"
	 viewBox="0 0 589.5 589.1" style="enable-background:new 0 0 589.5 589.1;" xml:space="preserve">
<style type="text/css">
	.st0{fill:none;stroke:#000000;stroke-width:16;stroke-linecap:round;stroke-miterlimit:10;}
	.st1{fill:none;stroke:#000000;stroke-width:16;stroke-miterlimit:10;}
</style>
<path d="M1833.5,471.4l32-32c5-5,13.7-1.5,13.7,5.7v145.4c0,26.5-21.5,48-48,48h-352c-26.5,0-48-21.5-48-48v-352
	c0-26.5,21.5-48,48-48h273.5c7.1,0,10.7,8.6,5.7,13.7l-32,32c-1.5,1.5-3.5,2.3-5.7,2.3h-241.5v352h352V477
	C1831.2,474.9,1832,472.9,1833.5,471.4z M1990.1,269.6l-262.6,262.6l-90.4,10c-26.2,2.9-48.5-19.2-45.6-45.6l10-90.4l262.6-262.6
	c22.9-22.9,59.9-22.9,82.7,0l43.2,43.2C2012.9,209.7,2012.9,246.8,1990.1,269.6L1990.1,269.6z M1891.3,300.5l-58.1-58.1
	l-185.8,185.9l-7.3,65.3l65.3-7.3L1891.3,300.5z M1956.1,220.8l-43.2-43.2c-4.1-4.1-10.8-4.1-14.8,0l-30.9,30.9l58.1,58.1l30.9-30.9
	C1960.2,231.5,1960.2,224.9,1956.1,220.8z"/>
<g>
	<polyline class="st0" points="405.2,353 405.2,581.1 8,581.1 8,183.9 235.6,183.9 	"/>
	<g>
		<path class="st1" d="M573.8,117.1L294.9,396c-4.3,4.3-9.7,7-15.2,7.6l-85.6,9.3c-11.3,1.2-19.5-7-18.3-18.3l9.1-83.8
			c0.6-5.4,3.3-10.9,7.6-15.2L472.3,15.7c8.9-8.9,21.9-10.3,29-3.1l75.6,75.6C584,95.3,582.6,108.2,573.8,117.1z"/>
		<line class="st1" x1="431.6" y1="56.5" x2="533" y2="157.9"/>
	</g>
</g>
</svg>
