<?xml version="1.0" encoding="utf-8"?>
<!-- Generator: Adobe Illustrator 24.0.0, SVG Export Plug-In . SVG Version: 6.00 Build 0)  -->
<svg version="1.1" id="Capa_1" xmlns="http://www.w3.org/2000/svg" xmlns:xlink="http://www.w3.org/1999/xlink" x="0px" y="0px"
	 viewBox="0 0 148.9 130.1" style="enable-background:new 0 0 148.9 130.1;" xml:space="preserve">
<style type="text/css">
	.st0{fill:#627B37;}
	.st1{fill:none;stroke:#7A6553;stroke-miterlimit:10;}
</style>
<g>
	<path class="st0" d="M54.4,95.1c7.1-0.2,13.4,4.1,20.9,2.5c5.6,2.3,10.7-2.7,16.6-2.1c2.1,0.2,5,0.5,5.7-2.6
		c0.6-2.8,0.6-5.9-2.1-7.7c-2.1-1.4-3-2.5-1.7-5.1c1.4-2.8,0.7-5.6-1.9-7.6c-1.8-1.3-3.8-1.3-5.6,0c-2.8,2-3,4.8-2.1,8
		c0.3,0.9,2,1.9,0.4,3c-1,0.7-1.9,0.1-2.9-0.2c-1.6-0.5-3.3-0.8-4.9-1c0.2-0.1,0.3-0.3,0.5-0.4c1.2-1.1,1.9-2.9,2.4-4.6
		c0.3-0.2,0.5-0.5,0.6-0.9c1.5-5-3.3-10.6-8.3-7.4c-3,2-3.3,6.5-1.7,9.7c0,0.2,0.1,0.5,0.2,0.7c0.7,1.1,1.6,2.3,2.7,2.9
		c-1.5,0.1-3,0.4-4.5,0.8l0,0.1c0,0-0.1,0-0.1,0c-3.3,0.9-4.6,0.8-3.2-3c1-2.8,0.6-5.6-2-7.6c-1.8-1.4-3.7-1.3-5.6-0.1
		c-2.7,1.8-2.9,4.6-2,7.2c0.8,2.6,0.2,3.9-1.9,5.7C50.4,88.3,51,95.2,54.4,95.1z M67,88.6c0.3-1.6,1.2-3.1,2.3-3.6l0-0.1
		c0.7-0.2,1.4-0.2,2,0.3c3.5,2.5,10.5-4.8,11.3,4.3c0.5,5.4-0.3,6.1-7.3,6.2h-0.7C67.2,95.7,65.8,94.3,67,88.6z"/>
	<path class="st0" d="M101.1,102.1c-0.5-0.1-0.9-0.2-1.3-0.3l0-0.1c-5-1.1-10.1-2.8-15.2-0.7c-4.3,1.8-8.4,1.8-12.6,0.3
		c-3.5-1.2-6.7-1.2-9.7,0.4l0.8,1.6c0.9-0.4,1.9-0.6,3-0.5c6.5,0.7,12.9,1.8,20.5,2.9c-3.4,2.6-6.4,0.6-8.9,2.6
		c8.5,4.7,14.3-3.2,21.8-5l0,0.1c-4.6,7.4-17.1,13.3-24.7,12.1c-4.2-0.7-8.4-2.3-12.5,0.7c-0.9,0.7-2,0.3-2.3-0.9
		c-0.7-2.8-3.3-5.5-1.1-8.4v0c1.1-1.5,2.5-2.9,4.1-3.5l-0.8-1.6c-0.6,0.3-1.1,0.7-1.7,1.1c-1.9,1.4-3.2,2.1-5.4-0.1
		c-1.8-1.8-4.8-1.6-7.1-0.5c-2.6,1.2-1.6,3.8-1.4,5.8c0.4,3.8,1.2,7.6,1.4,11.4c0.2,5.1,2.4,7.4,7.5,6.2c4.1,0.6,7.8,0.7,6.1-5.3
		c-0.3-1.2,1.2-1.9,2.1-2.6c2.7-2.2,5.7-1.2,8.6-0.7c3.9,0.7,7.9,2.1,11.8,0.3c6.4-2.9,11.7-7.6,17.5-11.5
		C103.5,104.5,103.1,102.5,101.1,102.1z M55.1,118.6c-2.5,0.2-1.9,2.7-2.7,4.2c-2.1-2.1-4.6-15.5-3.2-17.6c1.6-2.3,4.1-2.2,5.2,0.1
		c2.5,5.5,4.1,11.3,4.4,17.4C57.2,121.4,57.9,118.6,55.1,118.6z"/>
</g>
<path class="st1" d="M109.5,0.5h-70c-1.4,0-2.7,0.7-3.4,2L1,63.1c-0.7,1.2-0.7,2.7,0,3.9l35,60.7c0.7,1.2,2,2,3.4,2h70
	c1.4,0,2.7-0.7,3.4-2l35-60.7c0.7-1.2,0.7-2.7,0-3.9l-35-60.7C112.2,1.2,110.9,0.5,109.5,0.5z"/>
</svg>
