<?xml version="1.0" encoding="utf-8"?>
<!-- Generator: Adobe Illustrator 24.0.0, SVG Export Plug-In . SVG Version: 6.00 Build 0)  -->
<svg version="1.1" id="svg2" xmlns:svg="http://www.w3.org/2000/svg"
	 xmlns="http://www.w3.org/2000/svg" xmlns:xlink="http://www.w3.org/1999/xlink" x="0px" y="0px" viewBox="0 0 314.6 314.6"
	 style="enable-background:new 0 0 314.6 314.6;" xml:space="preserve">
<style type="text/css">
	.st0{fill:#97BE0D;}
	.st1{fill:#FFFFFF;}
</style>
<circle class="st0" cx="157.3" cy="157.3" r="157.3"/>
<g id="g2913">
	<path id="path2889" class="st1" d="M113.9,88c10.1,0.6,20.2,1.8,28.8,5.4c-8.1,3-14.3,6.6-21.4,9.9l5.6-23.1
		c4.4,8.8,9.1,18.2,11.6,27.1C130.4,99.4,122.2,93.6,113.9,88z"/>
	<path id="path2891" class="st1" d="M158.4,85.7l22.9,8.3l-17.9,8.4c1.7-7.6,3.7-15.2,6.1-23.1c2.6,9.8,5.3,19.9,7.1,29.3
		C170.8,100.3,164.5,93.2,158.4,85.7z"/>
	<path id="path2893" class="st1" d="M203.8,93.8c6.7,1.1,13.8,0.8,20.9,0c-5.8,5.2-11.7,10.3-17.9,15.2c2.7-7.8,5.3-15.7,7.7-23.8
		c1.6,8,3.3,16,4.9,24C214.5,105,209.1,99.9,203.8,93.8z"/>
	<path id="path2895" class="st1" d="M249.7,93.1c5.6-1.7,12.9-5.9,19.1-8.8c-5.2,6.8-10.5,13.3-15.7,19.3c1.7-7,4.3-14.3,6.5-21.9
		c1.8,5.3,3.1,10.1,5.5,14.9C260,96.3,254.8,95.3,249.7,93.1z"/>
	<path id="path2897" class="st1" d="M230,132.4c9.5-1.7,15.8-4.5,23.4-7.2c-6.7,6.8-14.5,16.1-20,20.5l8.5-24.8
		c1.9,6.9,4.2,13.4,6.4,20C242,139.3,236,136.1,230,132.4z"/>
	<path id="path2899" class="st1" d="M206.9,163.5c8.6,2.1,16.2,3.6,25.2,2.9c-5.6,5.4-12.6,8.9-19.7,12.2c2.4-6.9,4.7-14,6.7-21.6
		c3,7.8,5.5,17,8.9,23C219.6,175,213.2,169.3,206.9,163.5z"/>
	<path id="path2901" class="st1" d="M182.2,183.7c8,3.4,15.5,6.9,23.9,8.4c-6.1,2.7-12.2,5.3-18.6,7.6c1.8-6.8,3.4-13.2,5.6-20
		c2.7,8.5,5.6,16.9,9.3,25C195.2,199.3,188.3,191.3,182.2,183.7z"/>
	<path id="path2903" class="st1" d="M149.7,196.2c8.1,2.4,16.3,5.9,24.4,9.7c-6.8,2.8-13.4,6.1-19.8,10.1c2.7-8.4,5.7-17,7.5-25.2
		c2.5,9.8,5.8,20,8.2,30C165.1,214.8,156.4,203.7,149.7,196.2z"/>
	<path id="path2905" class="st1" d="M101.1,202.7c9.3-1.7,18.5-2.1,27.4-1.5c-8.6,7.7-15.7,14.4-23.3,21.4
		c3.6-11.2,7.1-22.3,10.7-33.5c2.2,10.5,4.2,21.7,6,33C116.6,216,108.5,208.7,101.1,202.7z"/>
	<path id="path2907" class="st1" d="M84.1,118.4c10.5-3.2,20.8-3.3,30.9-2.5l-23.2,15.2c2.5-8,4.9-16,7.8-24
		c4.4,7.8,8.3,15.6,11.6,23C104,124.9,94,121.5,84.1,118.4z"/>
	<path id="path2909" class="st1" d="M63.8,163.4c10.3-5.2,20.6-9.2,30.9-9.3l-24.8,24.2l10-32.8c3.7,8.6,7.4,18.1,9.3,26.8
		C81.4,168.5,73.1,165.3,63.8,163.4z"/>
	<path id="path2911" class="st1" d="M45.8,219.3c5.7-2.1,15.9-10,21.9-11.7c17-29.1,85.2-69.4,116.9-72.6c0.9-0.1,0.8,0.5,0,0.8
		c-33.3,9.7-89.1,40.1-110,73.2c-8,12.7-11.2,14.5-21.6,26.5c3.3-12.8,6.7-25.5,11.1-38.6c4,10,6.9,20.3,9.9,30.6
		C65.8,223,55.9,220.4,45.8,219.3z"/>
</g>
</svg>
