<?xml version="1.0" encoding="utf-8"?>
<!-- Generator: Adobe Illustrator 24.0.0, SVG Export Plug-In . SVG Version: 6.00 Build 0)  -->
<svg version="1.1" xmlns="http://www.w3.org/2000/svg" xmlns:xlink="http://www.w3.org/1999/xlink" x="0px" y="0px"
	 viewBox="0 0 74 96.5" style="enable-background:new 0 0 74 96.5;" xml:space="preserve">
<style type="text/css">
	.st0{fill:#FFFFFF;}
	.st1{fill:#4EAD4A;}
	.st2{fill-rule:evenodd;clip-rule:evenodd;fill:#4EAD4A;}
	.st3{fill-rule:evenodd;clip-rule:evenodd;fill:#48AD4A;}
	.st4{fill-rule:evenodd;clip-rule:evenodd;fill:#FFFFFF;}
</style>
<g id="Capa_3">
</g>
<g id="Capa_2">
	<g>
		<path class="st0" d="M72.8,83.4c-0.1-0.1-0.1-0.3-0.2-0.3l-0.4-0.9l-1-0.1c-0.2,0-0.3,0-0.5,0c-0.6,0-1.4,0.2-2,0.8
			c-0.2-0.3-0.5-0.7-0.7-1.1c-0.1-0.2-0.3-0.4-0.4-0.7c-0.1-0.2-0.3-0.4-0.4-0.6c0,0,0.1-0.1,0.1-0.1c0.3-0.3,0.4-0.7,0.4-0.9
			c0,0,0.1-0.1,0.1-0.1l1.5,0l0.2-0.1c0.6-0.2,1.5-0.7,1.4-2.5c0,0,0-0.1,0-0.1l0.1-0.7l-0.6-0.6c-0.9-1-2-1.2-2.7-1.2
			c-1.2,0-2.2,0.6-3,1.3c-0.5-0.3-1.2-0.5-1.9-0.5c-1.1,0-2,0.4-2.7,1.2l-0.3-0.3l-0.7-0.1c-0.2,0-0.4-0.1-0.6-0.1
			c-0.2,0-0.3-0.1-0.5-0.1L58,74.4l-0.5,0.6c-0.2,0-0.4,0-0.5,0c-1.8,0.1-2.7,1.3-3.4,2.3l-0.2-0.2c-0.2-0.2-0.4-0.4-0.6-0.6
			l-0.3-0.4L51.9,76c-0.4-0.1-0.8-0.2-1.2-0.2c-0.8,0-1.5,0.2-2,0.6c-0.5-0.3-1-0.3-1.3-0.3c-0.9,0-1.6,0.4-2.3,0.8l0,0
			c-0.6-0.3-1.2-0.5-1.8-0.5c-0.6,0-1.1,0.1-1.5,0.4c0.1-0.3,0.1-0.6,0.1-0.9c0-1.7-1.4-3.1-3.1-3.1c-1.7,0-3.1,1.4-3.1,3.1
			c0,0.6,0.2,1.2,0.5,1.7c-0.1,0.1-0.2,0.2-0.3,0.2c-0.1-0.1-0.3-0.1-0.4-0.2c0-0.3,0-0.7-0.2-1l-0.6-1.5l-1.5,0.5
			c-1,0.3-1.9,0.7-2.7,1.2l-0.6,0.4l0,0c-0.1,0-0.2-0.1-0.4-0.1l-1.6-0.3l-0.2,1l-1,0.1c-1.5,0.2-2.6,0.8-3.4,1.4
			c-0.1-0.1-0.2-0.2-0.4-0.3c-0.1,0-0.1-0.1-0.2-0.1l-0.5-0.4h-2.1l-0.4,0.3c-0.1,0.1-0.4,0.2-0.6,0.3c-0.2,0.1-0.4,0.2-0.5,0.3
			l-0.3,0.2L18,79.8c0,0,0,0,0,0v-3.4h-1.7c-0.1,0-0.2,0-0.4,0l-0.2-0.2l-0.8,0.1l0,0c-0.2,0-0.4-0.1-0.8-0.1l-1.8,0l-0.2,0
			c-4.6,0.4-6.9,4.4-7.5,7.6l0,0.2v3l0.1,0.2c0.6,2,1.6,3.5,2.9,4.3c-0.7,0.1-1.4,0.2-2.1,0.3c-0.3,0-0.6,0.1-1,0.1
			c-1.9,0.2-3.9,0.5-4.2,2.2L0,96.2l1.9,0.1c1,0.1,2,0.1,3.5,0.1c0.6,0,1.3,0,2,0c1.1,0,2.2,0,3.2,0l0.1,0l0.1,0
			c6.4-1,13-2.1,19.3-3.1c10.5-1.7,21.3-3.5,32.1-5.1c0.1,0,0.1,0,0.2,0c0.6,0,1.8-0.1,2.6-1.2l0.2-0.3c1,0.9,2.4,1.6,4.4,1.6
			c0.2,0,0.3,0,0.5,0l0.9,0l0.3-0.5c0,0,0,0,0.1,0c0.5-0.2,1.7-0.5,2-1.9C73.5,84.8,73.1,83.9,72.8,83.4z M15.1,84.2v1l-0.9-0.3
			l-0.7,0.8c-0.4,0.4-0.6,0.8-0.7,1.1c-0.1,0.1-0.1,0.2-0.1,0.3c-0.3,0.2-0.7,0.3-1.2,0.3c-0.7,0-1-0.2-1.1-0.7l0-0.2l-0.1-0.2
			c0-0.2,0-0.6,0-0.8l0.1-0.2l0-0.2c0.1-1.4,0.5-2.5,1.2-3.3l0.1-0.1c0.2-0.2,0.3-0.4,0.5-0.5c0.1,0,0.1,0,0.2-0.1
			c0.1,0,0.1,0,0.2-0.1c0.1,0,0.2,0,0.2,0c0.1,0.1,0.2,0.1,0.3,0.2c0,0.1,0.1,0.2,0.1,0.3c0.2,0.5,0.7,1.9,2.1,2
			c0,0.1-0.1,0.3-0.2,0.4L15.1,84.2z M29.1,87.7l0.3,0.7c-0.7,0.1-1.3,0.2-2,0.3l0.2-1.1c0.1-0.7,0.3-1.3,0.4-2
			c0.1-0.7,0.3-1.3,0.4-2c0.1,0,0.1-0.1,0.2-0.1c0.1-0.1,0.3-0.2,0.4-0.3c0,0.1,0,0.2,0,0.3C28.8,84.8,28.6,86.3,29.1,87.7z
			 M35.4,87.2L35.4,87.2l0.1,0.4c-0.2,0-0.4,0.1-0.7,0.1C35,87.5,35.2,87.3,35.4,87.2z M61.2,80.3c-0.2,0.3-0.4,0.6-0.6,0.9L60.5,81
			c0-0.1-0.1-0.1-0.2-0.2c0.1-0.2,0.2-0.4,0.3-0.6C60.8,80.3,61,80.3,61.2,80.3z M22,89L22,89l1.3,0.2c-0.7,0.1-1.4,0.2-2.2,0.3
			C21.5,89.4,21.7,89.2,22,89z M15.9,90.2c0.1-0.1,0.2-0.3,0.3-0.4l0.2-0.2c0.4,0.2,0.8,0.3,1.3,0.4c-0.6,0.1-1.3,0.2-1.9,0.3
			L15.9,90.2z"/>
		<path class="st0" d="M64.1,0H16.5c-5.5,0-9.9,4.5-9.9,9.9v53.4c0,5.5,4.5,9.9,9.9,9.9h47.5c5.5,0,9.9-4.5,9.9-9.9V9.9
			C74,4.5,69.5,0,64.1,0z"/>
		<g>
			<path class="st1" d="M16.5,3.4c-3.6,0-6.6,2.9-6.6,6.5v53.4c0,3.6,2.9,6.5,6.6,6.5h47.5c3.6,0,6.6-2.9,6.6-6.5V9.9
				c0-3.6-2.9-6.5-6.6-6.5H16.5L16.5,3.4z"/>
		</g>
		<g>
			<path class="st2" d="M61.5,77c0.9-1.2,3-0.7,3.2,0.8c0.8-1.2,3-3.3,4.6-1.5c-0.1,0.4,0.2,1.1-0.2,1.2c-0.3,0-0.7,0-1,0
				c-0.3-0.1-0.6-0.2-0.8-0.3c-0.4,0.4-0.8,0.9-1.1,1.4C66,78.8,66,79.1,66,79.2c-0.2,0.2-0.6,0.2-0.6,0.7c-0.1,0.8,0.8,1.8,1.3,2.6
				c0.5,0.9,1.1,1.7,1.5,2.3c0.6,0,0.9,0.4,1.4,0.1c0.2-0.7,0.5-1.3,1.5-1.2c0.2,0.6,0.8,1.1,0.6,1.7c-0.2,0.8-1.3,0.5-1.7,1.2
				c-3.7,0.2-4.6-2.3-6-4.4c-0.9,0.9-1.6,3-4,2.4c-1.6-0.4-0.6-2.5,1.3-1.5c0.8-1.1,3.4-3.7,0.9-5c-0.4,0.4-1,0.6-1.7,0.4
				C60.2,77.8,61.1,77.5,61.5,77z"/>
			<path class="st2" d="M52.3,78.6c-0.1,1.7-0.7,3.3-0.7,4.9c0.6,0.1,1-0.7,1.7-0.6c-0.3-1.3,0.5-2.5,1.1-3.4
				c0.6-1.1,1.2-2.5,2.7-2.6c0.6,0,1.2,0.3,1.9,0.4c0.1,0.2,0.1,0.5,0.4,0.5c0,0.3,0,0.7,0,1c-0.3,2-2.2,2.4-3.7,3.2
				c-0.1,0-0.1,0.1-0.2,0.1c0.1,0.3-0.1,0.9,0.1,1.1c0,0,0,0.1,0,0.1c1.5-0.1,2.3-0.8,3.3-1.4c0.2,0.2,0.2,0.4,0.4,0.5
				c0.1,1-0.8,1.2-1.2,1.7c-1.1,0.9-4.4,2-4.7-0.4c-0.7,1.1-2.4,2.4-4.1,1.4c0.1-2,0.5-3.6,0.7-5.5c-2.6,0.1-1.7,3.6-2.3,5.7
				c-0.3,0-0.3,0.2-0.5,0.2c-0.3,0.2-0.9,0-1.4,0.1c-0.1,0-0.2-0.1-0.4-0.2C45.4,83.7,46,82,46,80.3c-0.9,0.1-1,0.9-1.7,1.1
				c-0.2,1.5-0.3,3.2-0.5,4.6c-0.3-0.1-0.2,0.1-0.5,0.1c-0.4,0-0.8,0-1.2,0c-0.2-0.2-0.5-0.3-0.7-0.4c0.2-1.9,0.9-3.6,0.7-5.5
				c-0.9,0.1-0.7,1.3-1.8,1.2c0.3-1.5,1.9-4.1,4-3c0,0.4,0.2,0.5,0.2,0.8c1.2-0.4,3.2-2.6,4.1-0.5c0.6-0.6,1.5-1.5,2.9-1.1
				C51.7,78,52,78.3,52.3,78.6z M57.1,78.5c-0.5,0.7-1.5,0.8-1.6,1.8C56.5,80.9,57.3,79.4,57.1,78.5z"/>
			<path class="st2" d="M29,78.9c0.1,0,0.2-0.1,0.2-0.2c0.8,0.1,0.8,1,1.9,0.8c0.3-0.3,0.2-0.9,0.3-1.4c0.7-0.4,1.5-0.7,2.3-1
				c0.3,0.7-0.3,1.3-0.4,2c0.4,0.2,1.2,0,1.7,0.1c0.1,0,0.1,0,0.1,0.1c0,0.3,0,0.7,0,1c0.2,0,0.2-0.1,0.3-0.2
				c1.3-0.4,2.6-2.8,4.1-1.4c0.5,1.5-0.8,4.5-0.6,5.9c0,0.1,0.2,0.1,0.2,0c0.4-0.4,0.8-0.7,1.2-1.2c0.1,0,0.2,0,0.3,0
				c0,0.1,0.2,0.1,0.2,0.3c0,0.3,0,0.7,0,1c-0.4,0.5-1,1-1.4,1.4c-0.4,0-0.8,0-0.9,0.2c-0.4,0-0.7,0-1.1,0c0-0.1-0.1-0.1-0.2-0.1
				c-0.1-0.2-0.3-0.3-0.5-0.5c0-0.3,0-0.5,0-0.8c0.3-1.5,0.5-3.3,0.9-4.8c-0.5,0.3-1.6,1-2.3,0.5c-0.7,0.2-1.9-0.3-2.2,0.3
				c-0.2,1.4-0.6,3-0.5,4.4c1-0.4,1.6-1.2,2.5-1.7c0.3,0.2,0.6,0.6,0.5,0.9c0,0.3-1.8,1.9-2.4,2.3c-0.3,0.2-0.7,0.1-0.8,0.3
				c-0.3,0-0.7,0-1,0C31,87.1,31,87,30.7,87c-0.7-1.6,0.3-4.2,0.1-6c-0.2-0.2-1,0.1-1.2-0.2c0.1-0.3,0-0.3-0.2-0.5
				c-0.7,0.9-1.7,1.5-2.6,2.2c-0.3,1.6-0.6,3.1-0.9,4.7c-0.7,0.1-1.2,0.3-2.1,0.3c0.2-1.9,0.6-3.7,0.9-5.5c-0.2-0.1-0.5,0.3-0.7,0.5
				c-0.8,0.1-1.1-0.4-1.3-0.9c1.4-0.7,2.2-1.9,4.1-2.1c0.1,0.3,0.3,0.4,0.4,0.8c0.1-0.2,0.4-0.2,0.6-0.3
				C28.2,79.7,28.6,79.3,29,78.9z"/>
			<path class="st2" d="M6.3,84.2c0.6-2.9,2.6-5.9,6-6.2c0.6,0,1.1,0,1.7,0c0.4,0,0.6,0.2,1,0.1c0.2,0.2,0.7,0,1.1,0.1
				c0,0,0.1,0,0.1,0c0,1.1,0,2.3,0,3.4c-0.1,0-0.5-0.1-0.5,0.1c-1,0.5-0.8-1.1-1.5-1.8c-0.4-0.3-0.6-0.1-0.8-0.5
				c-0.4,0-0.8,0-0.9-0.2c-0.4,0.3-1,0.3-1.4,0.5c-0.3,0.3-0.6,0.6-0.9,0.9c-0.9,1.1-1.5,2.4-1.6,4.3c-0.1,0.4-0.1,1.5,0,1.9
				c0.2,2.4,3.1,2.8,4.9,1.6c0.7-0.4,0.7-1.1,1.2-1.6c0.4,0.1,0.6,0.4,0.9,0.6c0.1,0.6-0.3,0.7-0.5,1c-0.3,0.3-0.6,0.6-0.8,1
				c-1.5,0.4-2.5,1.5-4.2,1.4c-2.1-0.2-3.2-2.1-3.8-4C6.3,86,6.3,85.1,6.3,84.2z"/>
			<path class="st2" d="M19.3,80.9c0.4-0.2,1-0.4,1.4-0.7c0.3,0,0.7,0,1,0c0.3,0.3,0.7,0.5,0.9,0.8c0.3,3.3-2.4,3.6-4.1,5
				c0.1,0.5,0.4,0.7,0.7,0.8c1-0.3,1.8-0.8,2.6-1.4c0.2-0.1,0.3-0.2,0.6-0.2c0.2,0.1,0.2,0.4,0.2,0.7c-1,1.5-3.2,3.3-5.5,2.2
				c-0.1-0.6-0.4-0.9-0.4-1.5c0-0.7,0-1.4,0-2.1c0.4-1,0.6-2.1,1.5-2.6C18.7,81.6,19,81.3,19.3,80.9z M20.2,82.1
				c-0.7,0.3-1.1,0.9-1.2,1.8C19.9,83.8,20.8,83,20.2,82.1z"/>
			<path class="st2" d="M2,94.7c0.1-0.7,2.5-0.8,3.8-1c14-2.3,27.9-4.3,42.3-6c4.5-0.5,9-1.1,13.7-1.6c0.5-0.1,1.3-0.5,1.7,0.1
				c-0.3,0.5-1.1,0.4-1.5,0.5c-17.3,2.4-34.3,5.5-51.4,8.2C7.8,94.7,4.7,94.9,2,94.7z"/>
		</g>
		<path class="st3" d="M40.2,75.9c0,0.8-0.6,1.4-1.4,1.4c-0.8,0-1.4-0.6-1.4-1.4c0-0.8,0.6-1.4,1.4-1.4
			C39.5,74.5,40.2,75.1,40.2,75.9z"/>
		<path class="st4" d="M52,11.6c-0.4,0.4-0.5,1-1.1,1.2C50.5,14,50,15,49.6,16.1c-0.9,0.1-1.4-0.2-1.7-0.8c0.9-1.8,1.9-3.5,2.8-5.2
			c4.2,0.3,6.8,2.2,7.4,6.1c-1.8,1.1-3.6,2.3-5.3,3.5c-0.5-0.4-0.9-0.8-1.3-1.4c1.6-0.9,3.1-1.9,4.4-3.1c0.3,0.1,0.2-0.7,0.1-0.8
			c-0.6-1.3-1.7-2.2-3.1-2.7C52.8,11.5,52.1,11.5,52,11.6z"/>
		<path class="st4" d="M33.1,11.6c-1,0.5-3.7,1.9-3.6,3.2c0.1,0.7,1.5,1.4,2.2,1.8c1,0.6,1.8,0.9,2.4,1.5c-0.7,2.2-2.6,0.2-3.9-0.6
			c-1-0.7-1.9-1.3-2.6-1.7c0.3-1.2,1-2.1,1.5-3.1c0.4-0.3,0.7-0.6,1-1c0.8-0.8,1.9-1.3,3.3-1.4c0.6,0,1.3-0.1,1.7,0.1
			c1,1.6,1.9,3.3,2.9,4.9c-0.3,0.5-0.7,1-1.4,1.1c-1.1-1.2-1.4-3.2-2.7-4.2C34,11.7,33.5,11.4,33.1,11.6z"/>
		<path class="st4" d="M42.5,58.1c-0.9-6.5-5.2-12.3-8.2-17.4c-1.4-2.4-2.6-4.6-4.9-6.1c-0.5-0.3-1.1-0.9-1.4-1
			c-2.2-0.8-4.4-0.4-5.5,1.2c-0.8,1.1-1.3,2.5-1,4.6c-0.2,0.1-0.6-0.4-0.9-0.7c-0.8-0.9-1.9-2.3-2.5-3.4c-0.5-0.9-0.6-2-0.5-3.5
			c1-2.8,5.6-3.1,8.8-1.8c2.7,1.1,5,3.5,6.2,5.5c0,0,0,0.1,0,0.1c0.8,0.3,0.5-0.9,0.5-1.9c0-0.8,0-1.5,0-1.9c0-0.8,0-1.6,0.1-2.3
			c0.2-0.7,0-1.7,0.1-2.5c0.5-4.7,2.5-8,7.6-8.1c0.9,0,1.9,0,2.8,0c2.2,0.1,3.2,1.3,4.5,2.3c0.2,1.5,0.9,2.5,1.1,4
			c0,0.8,0,1.5,0,2.3c-0.1,4.6-6.6,5.2-9.8,3.1c-0.3-0.3-0.6-0.6-0.9-0.9c-1.5-1.7,0-4.4,1.3-5.3c0.4-0.3,0.8-0.7,1.1-1.1
			c0.8,0,1.3,0.3,1.7,0.7c-0.5,0.8-2.3,1.8-2.3,3.5c0,0.4,0.3,0.7,0.4,1.1c1.2,0.5,2.9,1.3,4.3,0.8c1.8-0.6,2.4-4.1,1.7-6.2
			c-0.3-0.8-0.9-1.2-1.2-1.9c-1.3-0.6-2.6-1.5-4.7-1.1c-0.7,0.1-1.6-0.1-2.1,0.1c-1.6,0.3-2.4,1-3.3,2.4c-0.8,1.4-1.6,3-1.4,5.4
			c-0.2,0.6-0.2,1.8,0,2.4c0.7,8,4.1,14.5,7.6,20c1,1.6,1.8,2.5,2.4,4.7c0.7,2.2,1.2,4.9,0.1,7.1c-1.4,2.9-7.4,4.9-11.5,2.8
			c-1-0.5-2-1.9-2.2-3.1c0-0.5,0-1,0-1.5c0.5-3.9,3.2-5.6,4.9-8.3c0.1-0.1,0.2-0.1,0.2,0c0.4,0.5,0.8,0.9,1.3,1.3c0,0,0.1,0,0.1,0
			c-0.9,0.8-1.9,1.5-2.9,2.3c-0.4,0.3-0.7,0.6-1,1c-0.2,1-0.8,1.6-0.9,2.4c-0.4,3,2.3,4.8,4.8,5.2c0.7,0.1,2.5,0.4,2.8-0.3
			c1.6-0.5,2.4-1.8,2.7-3.5C42.6,60,42.6,58.7,42.5,58.1z"/>
		<path class="st4" d="M52.6,21.1c1.8-0.8,4.1-1.1,6.1-1.7c2.6,1,3.9,6.3,1.2,8.1c-2.2-0.2-4.5-0.4-6.5-0.8c-0.2-0.4-0.1-1,0-1.4
			c2.2,0,4,0.5,6.2,0.5c0.3,0-0.1-0.6,0.2-0.6c0.3-0.3,0.3-1.8,0-2.2c-0.1-0.9-0.7-1.2-0.9-2c-2.6-0.2-3.9,1.7-5.8,1.5
			c-0.2,0-0.2-0.1-0.2-0.2C52.6,22.1,52.8,21.4,52.6,21.1z"/>
		<path class="st4" d="M55.1,35.5c1.2-1,2.3-2,2.4-4.2c-0.7-1.3-8.4-0.8-4.7-3c2,0.5,4,1,6,1.5c0.6,4.3-1.5,6.6-4.7,7.3
			c-1.7-1.3-3.4-2.5-4.8-4.1c0.3-0.4,0.5-0.8,0.8-1.1c1.5,1,2.7,2.2,4.2,3.2C54.2,35.5,54.8,35.8,55.1,35.5z"/>
		<path class="st4" d="M45.9,40.2c0.6-0.2,1.4-0.2,1.6-0.7c-0.2-2-1.2-3.1-1.8-4.7c0.3-0.5,0.7-1.1,1.4-0.9c0.7,0.2,1.8,5.1,2.1,5.5
			c-0.3,0.3-0.6,0.6-0.9,0.9c-1.4,2.1-5.9,2.1-7.8,0.5c0.2-2.1,0.5-4.1,0.7-6.2c0.5,0,1-0.4,1.4-0.1c0.2,1.8-0.3,3.6-0.2,5.5
			c0.5,0.3,1.6,0.6,2.4,0.4C45.2,40.3,45.9,40.6,45.9,40.2z"/>
		<path class="st4" d="M24,18.6c0.6-0.6,1.3-1.1,2.2-1.4c2,0.9,3.7,2.2,5.6,3.2c-0.3,0.5-0.4,1.2-0.9,1.5c-1.7-0.7-3.2-2.2-5.1-3
			c-1.3,0.8-2.8,3-2,4.8c1.7,0.2,3.4,0.4,5.2,0.5c0.1,0.4,0.5,0.4,0.5,0.8c-0.2,0.2-0.4,0.5-0.5,0.9c-2.3-0.1-4.1-0.6-6.3-0.8
			c-0.2-0.7-0.5-1.3-0.5-2.3c0-0.4,0-0.8,0-1.3c0-0.8,0.4-1.4,0.7-1.9C23.3,19.3,23.7,19,24,18.6z"/>
		<path class="st4" d="M40.1,10.5c0.4,0.1,0.2,0.4,0.4,0.9c0.5,1.8,2.7,4-0.5,3.7c-0.5-1.9-1-3.8-1.5-5.6c0.5-0.6,1.3-0.9,1.8-1.5
			c2.4-1.3,5.6-0.6,7.4,0.7c-0.3,2.1-0.8,4-1.2,6.2c-0.6,0-1.3,0.1-1.7-0.1c0.2-1.9,0.6-3.6,0.7-5.5c-0.5-0.6-1.7-0.6-2.8-0.6
			c-0.2,0.2-0.9-0.1-1.1,0.2C41,9,40.7,9.3,40.3,9.6C39.9,9.6,39.9,10.3,40.1,10.5z"/>
		<path class="st4" d="M38.4,56.6c-0.3-0.1-0.9,0.5-1.2,0.6c-0.3,0.2-0.4,0.3-0.5,0.8c-0.1,0.5-0.5,2.4-0.5,2.6c0,0.2,0.5,1,1.2,1.1
			c0.7,0.1,1.5-0.5,1.5-0.9c0.1-0.3,0.4-2.5,0.5-2.9C39.4,57.5,38.8,56.7,38.4,56.6z"/>
	</g>
</g>
</svg>
