<?xml version="1.0" encoding="utf-8"?>
<!-- Generator: Adobe Illustrator 24.0.0, SVG Export Plug-In . SVG Version: 6.00 Build 0)  -->
<svg version="1.1" id="Capa_1" xmlns="http://www.w3.org/2000/svg" xmlns:xlink="http://www.w3.org/1999/xlink" x="0px" y="0px"
	 viewBox="0 0 220.5 221.1" style="enable-background:new 0 0 220.5 221.1;" xml:space="preserve">
<style type="text/css">
	.st0{fill:#FFFFFF;}
	.st1{fill:none;stroke:#007934;stroke-width:3.9169;stroke-miterlimit:10;}
	.st2{fill:none;stroke:#007934;stroke-width:1.6966;stroke-miterlimit:10;}
	.st3{fill:#007934;stroke:#007934;stroke-width:0.7694;stroke-linejoin:round;stroke-miterlimit:10;}
	.st4{fill:#007934;}
	.st5{fill:#C2D500;}
	.st6{fill:url(#SVGID_1_);}
	.st7{fill:#FFC629;}
	.st8{fill:url(#SVGID_2_);}
	.st9{fill:#3CB4E5;}
	.st10{fill:url(#SVGID_3_);}
	.st11{fill:#3D7CC9;}
	.st12{fill:none;stroke:#007934;stroke-width:0.5655;stroke-linecap:round;stroke-linejoin:round;stroke-miterlimit:10;}
</style>
<g>
	<path class="st0" d="M218.6,110.6c0,60-48.5,108.6-108.3,108.6C50.4,219.2,2,170.6,2,110.6C2,50.6,50.4,2,110.3,2
		C170.1,2,218.6,50.6,218.6,110.6z"/>
	<g>
		<path class="st1" d="M218.6,110.6c0,60-48.5,108.6-108.3,108.6C50.4,219.2,2,170.6,2,110.6C2,50.6,50.4,2,110.3,2
			C170.1,2,218.6,50.6,218.6,110.6z"/>
		<path class="st2" d="M185.8,110.6c0,41.8-33.8,75.8-75.5,75.8c-41.7,0-75.5-33.9-75.5-75.8c0-41.9,33.8-75.8,75.5-75.8
			C152,34.8,185.8,68.7,185.8,110.6z"/>
		<g>
			<path class="st3" d="M19.9,149.3c-3.2,1.2-5.7-0.5-7.5-5.1c-0.6-1.6-1-3.1-1.1-4.6l3-0.4c0,1.5,0.3,2.9,0.7,4.1
				c0.5,1.3,1,2.2,1.5,2.7c0.5,0.5,1,0.6,1.6,0.4c0.6-0.2,1.1-0.7,1.3-1.4c0.2-0.6,0.3-1.8,0.4-3.4c0.1-1.5,0.3-2.7,0.7-3.6
				c0.5-1.1,1.4-1.9,2.6-2.4c1.4-0.5,2.7-0.4,3.9,0.3c1.2,0.8,2.2,2.1,2.9,4.1c0.6,1.6,1,3,1.1,4.2l-2.9,0.6c0-1.3-0.3-2.6-0.8-3.9
				c-0.7-2-1.6-2.7-2.7-2.3c-0.6,0.2-0.9,0.6-1.1,1.2c-0.1,0.5-0.2,1.5-0.3,3.1c0,1.6-0.3,2.9-0.7,3.9
				C22.2,147.9,21.3,148.8,19.9,149.3z"/>
			<path class="st3" d="M26.7,171.2l-2.2-3.6c0.5-0.3,1.7-1.5,3.6-3.6l-3.2-5.2c-2.7,0.7-4.3,1.2-4.9,1.6l-2.1-3.4
				c0.3-0.2,3.2-0.8,8.8-1.8c5.6-1.1,8.6-1.7,9.1-2l2.6,4.3c-0.4,0.3-2.4,2.6-5.9,6.9C29.1,168.6,27.1,171,26.7,171.2z M29.8,162
				c3.1-3.7,4.8-5.6,5.1-5.8l-0.1-0.2c-0.3,0.2-2.8,0.8-7.5,1.9L29.8,162z"/>
			<path class="st3" d="M40.8,185.4c-1.8-1.2-3.3-2.2-4.2-3.3c-2.1-2.2-3.1-4.5-3-6.7c0.1-2.3,1-4.3,2.8-5.9c1.8-1.7,4-2.6,6.5-2.7
				c2.5,0,4.8,1,6.9,3.2c1,1,1.8,2,2.3,3l-2.6,1.8c-0.7-1.2-1.4-2.3-2.2-3.1c-1.3-1.3-2.7-1.9-4.1-1.8c-1.5,0.1-2.8,0.8-4,1.9
				c-1.2,1.2-1.9,2.6-2.1,4.2c-0.2,1.6,0.3,3.1,1.6,4.4c0.3,0.4,0.8,0.8,1.3,1.2c0.6-0.8,1.3-1.5,1.9-2.2c0.7-0.6,1.4-1.5,2.1-2.4
				l2.6,2.7c-1,0.9-2,1.8-3,2.8C42.9,183.2,41.9,184.1,40.8,185.4z"/>
			<path class="st3" d="M59.1,199.6l-3.5-2.4c0.3-0.5,0.9-2.1,1.8-4.8l-5-3.4c-2.2,1.7-3.5,2.9-3.8,3.4l-3.3-2.3
				c0.2-0.3,2.6-2,7.3-5.3c4.7-3.2,7.2-5.1,7.5-5.5l4.1,2.8c-0.3,0.4-1.1,3.3-2.6,8.7C60.2,196.3,59.4,199.2,59.1,199.6z M58.3,190
				c1.3-4.6,2.1-7.1,2.3-7.4l-0.2-0.1c-0.2,0.3-2.2,1.9-6.1,4.8L58.3,190z"/>
			<path class="st3" d="M77.8,207.7l-3.6-1.5c0.3-3.3,0.3-5.4,0-6.3c-0.2-0.9-0.9-1.6-2-2c-0.5-0.2-0.9-0.4-1.4-0.5
				c-0.9,2.1-1.7,4.2-2.5,6.4l-3.4-1.4c1.1-2.4,2.3-5.2,3.6-8.3c1.2-3,2.2-5.5,3-7.7l2.1,0.9c0.2,0.1,0.8,0.3,1.6,0.6
				c0.8,0.3,1.5,0.6,2.2,0.9c3.7,1.6,5.1,3.6,4,6.2c-0.8,2-2.5,3-5,2.9l-0.1,0.2c0.7,0.6,1.2,1.5,1.4,2.8
				C77.9,202.2,78,204.5,77.8,207.7z M77.9,194.5c0.7-1.6,0-2.9-2.1-3.7c-0.8-0.3-1.5-0.6-2.1-0.7c-0.4,1.3-1.1,3-1.9,5
				c0.4,0.2,0.8,0.4,1.1,0.5C75.5,196.7,77.2,196.3,77.9,194.5z"/>
			<path class="st3" d="M99.2,199.5c-0.4,2.1-1.5,3.5-3.2,4.1c-1.7,0.7-3.7,0.8-6,0.3c-0.4-0.1-0.7-0.2-0.9-0.2
				c-0.3,1.6-0.7,3.8-1.2,6.5l-3.6-0.7c0.6-2.5,1.3-5.4,2-8.8c0.6-3.1,1.1-5.8,1.5-8.1l2.3,0.5c0.3,0.1,0.9,0.2,1.8,0.3
				c0.9,0.2,1.7,0.3,2.4,0.4c1.6,0.3,3,1,3.9,2C99.2,196.7,99.5,198,99.2,199.5z M95.7,199.5c0.4-1.9-0.7-3-3.1-3.5
				c-0.6-0.1-1.3-0.2-2-0.2c-0.2,1.7-0.6,3.5-1,5.6c0.2,0.1,0.5,0.1,0.8,0.2C93.6,202.2,95.3,201.5,95.7,199.5z"/>
			<path class="st3" d="M117.3,212.8l-4.2-0.1c0-0.6-0.4-2.2-1.1-5l-6.1-0.1c-0.9,2.7-1.3,4.3-1.3,5l-4-0.1c0-0.4,1.1-3.2,3.2-8.5
				c2.1-5.3,3.2-8.2,3.2-8.7l5,0.1c0,0.5,0.9,3.4,2.7,8.7C116.5,209.5,117.3,212.3,117.3,212.8z M111.3,205.2
				c-1.4-4.6-2.2-7.1-2.1-7.4l-0.2,0c0,0.3-0.8,2.8-2.5,7.4L111.3,205.2z"/>
			<path class="st3" d="M153.3,203.4l-3.7,1.2c-0.5-1.4-1.4-3.8-2.7-7.1c-1.3-3.3-2.1-5.4-2.4-6.2l-0.2,0.1c0.1,0.5,0.2,1.5,0.3,3
				c0.1,1.5,0.1,3.7,0,6.7c-0.1,3-0.1,4.7,0.1,5.3l-2.8,0.9c-0.2-0.5-1.2-2-3-4.3c-1.8-2.4-3.1-4-3.7-5c-0.7-1-1.2-1.9-1.8-2.9
				l-0.2,0.1c0.3,1.1,1,3.3,2,6.8c1,3.5,1.6,5.8,2,6.9l-3.3,1.1c-0.1-0.2-0.6-2.9-1.6-7.9c-1-5-1.7-8-2.1-9.1l4.9-1.6
				c0.3,0.9,1.5,2.8,3.6,5.7c2.1,2.9,3.3,4.7,3.6,5.6l0.2-0.1c-0.3-0.9-0.4-3.2-0.3-6.7c0.1-3.6,0-5.9-0.3-6.8l4.8-1.6
				c0.6,1.8,1.8,4.8,3.7,9.1C152.2,200.8,153.2,203.1,153.3,203.4z"/>
			<path class="st3" d="M168.5,191.5l1.5,2.5l-9.6,6c-1.3-2.3-2.9-4.9-4.6-7.8c-1.7-2.7-3.2-5-4.5-6.9l9.1-5.7l1.4,2.5
				c-2.3,1.3-4.4,2.5-6.2,3.6c0.7,1,1.5,2.2,2.4,3.6c1.6-1,3.2-2.1,4.9-3.3l1.5,2.4c-1.8,1-3.5,2-5.1,3c0.9,1.5,1.9,2.9,2.8,4.2
				C164.1,194.5,166.3,193.1,168.5,191.5z M157.2,175.5c0.1,0.1-0.1,0.9-0.5,2.5c-0.4,1.5-0.6,2.4-0.6,2.6l-2,1.2
				c-0.1-0.1-0.1-0.8-0.1-2.1c0-1.3,0-2,0-2.1L157.2,175.5z"/>
			<path class="st3" d="M185.9,178.7l-3.2,3c-0.2-0.2-1.4-0.7-3.4-1.5c-2-0.7-3.4-1.2-4.1-1.3l-0.2,0.1c0.1,0.6,0.4,2,1.1,4
				c0.7,2.1,1.1,3.2,1.4,3.5l-3,2.8c-0.2-0.2-0.6-1.9-1.2-5c-0.6-3.2-0.9-5.1-0.8-5.8l-0.1-0.1c-0.7-0.1-2.3-0.4-4.8-1
				c-2.6-0.6-4-1.1-4.2-1.3l3.1-2.9c0.2,0.2,1.1,0.6,2.8,1.2c1.7,0.6,2.8,1,3.3,1l0.2-0.1c0-0.5-0.3-1.6-0.9-3.4
				c-0.5-1.7-0.9-2.7-1.1-2.9l2.9-2.7c0.2,0.2,0.5,1.6,0.8,4.2c0.4,2.6,0.6,4.3,0.6,4.9l0.1,0.1c0.9,0.1,2.8,0.5,5.8,1.4
				C184,177.9,185.7,178.4,185.9,178.7z"/>
			<path class="st3" d="M192.7,170.1l-2.2,3.1c-2.2-1.7-4.6-3.5-7.2-5.4c-2.6-1.9-4.9-3.5-6.8-4.7l2.2-3.1c1.7,1.4,3.9,3.1,6.6,5
				C188,166.9,190.5,168.6,192.7,170.1z"/>
			<path class="st3" d="M200.5,150.6l2.6,1.7c-0.3,1.3-0.8,2.4-1.4,3.5c-1.4,2.7-3.3,4.3-5.5,4.9c-2.2,0.6-4.4,0.3-6.5-0.8
				c-2.2-1.2-3.7-3-4.5-5.3c-0.8-2.4-0.5-4.8,0.9-7.4c0.5-0.9,1.1-1.8,1.8-2.5l2.5,1.9c-0.8,0.8-1.4,1.5-1.9,2.4
				c-0.9,1.6-1,3-0.4,4.3c0.6,1.3,1.6,2.4,3,3.1c1.5,0.8,3,1,4.5,0.7c1.6-0.3,2.8-1.3,3.7-3C199.8,153.1,200.2,152,200.5,150.6z"/>
			<path class="st3" d="M202,127.7c2.6,0.8,4.5,2.3,5.7,4.4c1.2,2.1,1.5,4.3,0.7,6.7c-0.7,2.2-2,3.9-4.1,4.9c-2,1-4.2,1.1-6.7,0.4
				c-2.6-0.8-4.5-2.3-5.7-4.4c-1.2-2.1-1.5-4.4-0.7-6.7c0.7-2.2,2-3.9,4.1-4.9C197.3,127.1,199.6,127,202,127.7z M201.3,131.3
				c-1.8-0.6-3.3-0.5-4.7,0c-1.4,0.5-2.3,1.5-2.7,2.8c-0.4,1.2-0.2,2.5,0.7,3.7c0.8,1.2,2.1,2.1,3.8,2.6c1.8,0.5,3.3,0.5,4.7,0
				c1.4-0.6,2.3-1.5,2.7-2.8c0.4-1.2,0.1-2.5-0.7-3.7C204.2,132.7,202.9,131.9,201.3,131.3z"/>
		</g>
		<g>
			<path class="st4" d="M40,47.8c2.2,1.6,3.5,3.7,3.9,6.1c0.4,2.4-0.1,4.6-1.6,6.5c-1.4,1.9-3.2,2.9-5.5,3.2
				c-2.2,0.3-4.4-0.4-6.4-1.9c-2.2-1.7-3.5-3.7-3.9-6.1c-0.4-2.4,0.1-4.6,1.6-6.5c1.4-1.9,3.2-2.9,5.5-3.2
				C35.9,45.7,38,46.3,40,47.8z M38.1,51c-1.5-1.1-2.9-1.6-4.4-1.6c-1.5,0.1-2.6,0.6-3.5,1.7c-0.8,1-1,2.2-0.6,3.7
				c0.4,1.4,1.3,2.7,2.7,3.7c1.5,1.1,2.9,1.6,4.4,1.6c1.5-0.1,2.6-0.6,3.5-1.7c0.8-1,1-2.3,0.6-3.7C40.4,53.3,39.5,52.1,38.1,51z"/>
			<path class="st4" d="M65.8,38.2l-3.2,2.3c-2.7-1.9-4.4-3-5.3-3.3c-0.9-0.3-1.8-0.1-2.8,0.7c-0.4,0.3-0.8,0.6-1.2,0.9
				c1.3,1.8,2.7,3.7,4.1,5.5l-3,2.2c-1.5-2.2-3.2-4.7-5.2-7.4c-1.9-2.6-3.6-4.8-5-6.6l1.8-1.4c0.2-0.1,0.7-0.5,1.3-1
				c0.7-0.5,1.3-1,1.9-1.4c3.3-2.4,5.7-2.5,7.3-0.2c1.3,1.8,1.3,3.7-0.1,5.8l0.1,0.2c0.9-0.3,1.9-0.2,3.1,0.3
				C61.2,35.2,63.1,36.4,65.8,38.2z M54.7,31.2c-1-1.4-2.5-1.5-4.3-0.1c-0.7,0.5-1.2,1-1.7,1.4c0.9,1.1,2,2.5,3.3,4.2
				c0.4-0.3,0.7-0.5,1-0.7C55.3,34.4,55.8,32.8,54.7,31.2z"/>
			<path class="st4" d="M86.9,30.3c-1.8,1.2-3.3,2.1-4.7,2.6c-2.8,1-5.3,1-7.3,0c-2-1-3.4-2.7-4.2-4.9c-0.8-2.4-0.8-4.7,0.2-7
				c1-2.3,2.9-4,5.7-5c1.3-0.5,2.6-0.8,3.7-0.9l0.6,3.1c-1.4,0.1-2.6,0.4-3.7,0.8c-1.7,0.6-2.9,1.6-3.3,3c-0.5,1.4-0.4,2.9,0.1,4.4
				c0.6,1.6,1.5,2.8,2.9,3.6c1.4,0.8,2.9,1,4.6,0.3c0.5-0.2,1-0.4,1.6-0.7c-0.5-0.9-0.8-1.8-1.2-2.6c-0.3-0.9-0.8-1.9-1.4-2.9
				l3.5-1.3c0.4,1.3,0.8,2.6,1.3,3.9C85.7,27.5,86.2,28.7,86.9,30.3z"/>
			<path class="st4" d="M113,28.7l-4.2,0.2c0-0.6-0.5-2.2-1.5-4.9l-6.1,0.3c-0.7,2.7-1,4.4-1,5l-4,0.2c0-0.3,0.8-3.2,2.6-8.7
				c1.8-5.4,2.6-8.4,2.6-8.9l5-0.3c0,0.5,1.1,3.3,3.3,8.5C111.9,25.4,113,28.2,113,28.7z M106.5,21.6c-1.8-4.5-2.6-6.9-2.7-7.3
				l-0.2,0c0,0.3-0.6,2.8-1.9,7.5L106.5,21.6z M107.9,6.5c0,0.1-0.5,0.7-1.7,1.9c-1.1,1.2-1.7,1.8-1.8,1.9l-2.3,0.1
				c0-0.1,0.3-0.8,1-1.9c0.6-1.1,1-1.7,1-1.8L107.9,6.5z"/>
			<path class="st4" d="M135.7,32.5l-3.2-0.8c0.1-0.4-0.6-2.5-2.2-6.4c-1.6-4.2-2.4-6.9-2.4-8.3l-0.2-0.1c-0.2,1.9-0.6,3.7-0.9,5.2
				c-0.5,2.1-1.1,4.7-1.7,7.8l-3.2-0.8c0.8-2.6,1.5-5.5,2.3-8.7c0.8-3.1,1.3-5.8,1.7-8.1l3.8,0.9c-0.1,0.5,0.5,2.5,1.8,6.2
				c1.4,3.9,2.2,6.5,2.2,7.8l0.2,0.1c0.3-2,0.6-3.7,0.9-5.2c0.6-2.3,1.1-4.7,1.6-7.2l3.2,0.8c-0.6,2.1-1.3,4.7-2.1,7.9
				C136.8,26.9,136.2,29.9,135.7,32.5z"/>
			<path class="st4" d="M148.9,38.2l-3.3-1.7c1.4-2.4,2.8-5,4.3-7.9c1.5-2.9,2.7-5.3,3.7-7.4l3.3,1.7c-1.1,1.9-2.5,4.3-4,7.2
				C151.4,33.1,150.1,35.8,148.9,38.2z"/>
			<path class="st4" d="M169.6,48.6l-2.1,2.2c-1.1-0.6-2.2-1.3-3.1-2.1c-2.3-2-3.5-4.1-3.6-6.4c-0.1-2.3,0.6-4.4,2.1-6.2
				c1.6-1.9,3.6-3,6.1-3.3c2.5-0.3,4.8,0.5,7,2.4c0.8,0.7,1.5,1.5,2.1,2.3l-2.3,2c-0.6-0.9-1.2-1.7-1.9-2.3
				c-1.4-1.2-2.7-1.6-4.1-1.3c-1.4,0.3-2.6,1.1-3.7,2.3c-1.1,1.3-1.6,2.7-1.6,4.3c0,1.6,0.7,3,2.1,4.2
				C167.3,47.5,168.4,48.1,169.6,48.6z"/>
			<path class="st4" d="M190.9,65.7c-2.3,1.5-4.6,2-7,1.6c-2.4-0.4-4.3-1.6-5.6-3.7c-1.3-1.9-1.7-4-1.1-6.3c0.5-2.2,1.8-4,3.9-5.4
				c2.3-1.5,4.6-2,7-1.6c2.4,0.4,4.3,1.6,5.6,3.7c1.3,1.9,1.7,4,1.1,6.2C194.3,62.5,193,64.3,190.9,65.7z M188.6,62.8
				c1.5-1,2.5-2.2,3-3.7c0.4-1.4,0.3-2.7-0.5-3.9c-0.7-1.1-1.8-1.7-3.2-1.8c-1.5-0.1-2.9,0.3-4.4,1.3c-1.5,1-2.5,2.2-3,3.7
				c-0.4,1.4-0.3,2.7,0.5,3.9c0.7,1.1,1.8,1.7,3.2,1.8C185.7,64.2,187.1,63.8,188.6,62.8z"/>
		</g>
		<path class="st5" d="M46.2,95.3c0,0-11,39.9,12.7,54.1c0,0-5.9-22.1-5.1-29.7c0,0,14.4,54.9,64.7,54.9c0,0-32.5-12.5-39.5-32
			c0,0,42.4,39.4,59.9,31.1c0,0-33-14.4-40.4-30.6c0,0,42.4,36.8,55.3,22.6c0,0-19.7,3.7-33.9-20.1c-2.5-4.3-7.9-16.7-9.9-21.5
			C108.1,119.4,92.5,83.4,46.2,95.3z"/>
		
			<linearGradient id="SVGID_1_" gradientUnits="userSpaceOnUse" x1="-285.063" y1="-81.8994" x2="-174.9312" y2="-81.8994" gradientTransform="matrix(1 0 0 1 328.7383 215.8027)">
			<stop  offset="0" style="stop-color:#FEFEFE"/>
			<stop  offset="0.9162" style="stop-color:#005640"/>
		</linearGradient>
		<path class="st6" d="M46.2,95.3c0,0-11,39.9,12.7,54.1c0,0-5.9-22.1-5.1-29.7c0,0,14.4,54.9,64.7,54.9c0,0-32.5-12.5-39.5-32
			c0,0,42.4,39.4,59.9,31.1c0,0-33-14.4-40.4-30.6c0,0,42.4,36.8,55.3,22.6c0,0-19.7,3.7-33.9-20.1c-2.5-4.3-7.9-16.7-9.9-21.5
			C108.1,119.4,92.5,83.4,46.2,95.3z"/>
		<path class="st7" d="M149.3,159.9c0,0,4-6.2-0.3-7.6c-4.2-1.4-18.1-7.1-23.7-23.2c0,0,5.1,1.1,9,3.4c0,0-2.3-4.5-4.2-7.9
			c-2-3.4-4.2-15.3-16.7-19.3c0,0,16.4-2.8,31.9,17.8c0,0-1.1-18.1,4.5-22.7c0,0,9.6,8.8,12.1,16.4c0,0,3.7-19.3-1.4-25.8
			c0,0,17.8,15.3,5.6,49c0,0,8.5-11.1,11.9-22.9C178.1,117.1,178.9,139.5,149.3,159.9z"/>
		
			<radialGradient id="SVGID_2_" cx="-184.5353" cy="-88.5828" r="31.1838" gradientTransform="matrix(1 0 0 1.0029 328.7383 214.1731)" gradientUnits="userSpaceOnUse">
			<stop  offset="0" style="stop-color:#FEFEFE"/>
			<stop  offset="8.563999e-02" style="stop-color:#FEF9F7"/>
			<stop  offset="0.2136" style="stop-color:#FEEBE2"/>
			<stop  offset="0.3679" style="stop-color:#FED5C1"/>
			<stop  offset="0.543" style="stop-color:#FEB692"/>
			<stop  offset="0.7328" style="stop-color:#FF8F58"/>
			<stop  offset="0.9043" style="stop-color:#FF671D"/>
		</radialGradient>
		<path class="st8" d="M149.3,159.9c0,0,4-6.2-0.3-7.6c-4.2-1.4-18.1-7.1-23.7-23.2c0,0,5.1,1.1,9,3.4c0,0-2.3-4.5-4.2-7.9
			c-2-3.4-4.2-15.3-16.7-19.3c0,0,16.4-2.8,31.9,17.8c0,0-1.1-18.1,4.5-22.7c0,0,9.6,8.8,12.1,16.4c0,0,3.7-19.3-1.4-25.8
			c0,0,17.8,15.3,5.6,49c0,0,8.5-11.1,11.9-22.9C178.1,117.1,178.9,139.5,149.3,159.9z"/>
		<g>
			<path class="st9" d="M51.3,86.3c0,0,7.9-7.4,21.7-7.1c13.8,0.3,25.7,7.6,32.5,10.8c6.8,3.1,32.5,11.6,46.9-3.4
				c0,0-3.4-33.4-44-40.5c0,0-0.3,2.3,0.6,3.4c0.8,1.1,12.4,10.8,15.8,19c0,0-5.2-5.9-11.2-9.7c-6-3.9-25.5-18.1-35.6-7.3
				c0,0,5.6-1.5,11.9,1.1c6.2,2.6,15.4,7,20.2,13.8c0,0-29.5-21.6-45.6-5.4c0,0,8.1-2.1,14.2-0.9c6.1,1.2,17.7,4.5,20.9,9.5
				c0,0-33.6-16.9-44.1,3.5c0,0,6.7-4.2,17.9-3.7c11.2,0.5,20.4,5.4,20.4,5.4S53.7,64.3,51.3,86.3z"/>
		</g>
		
			<radialGradient id="SVGID_3_" cx="-226.8863" cy="-143.1542" r="39.7122" gradientTransform="matrix(1 0 0 1.0029 328.7383 214.1731)" gradientUnits="userSpaceOnUse">
			<stop  offset="0.1702" style="stop-color:#FEFEFE"/>
			<stop  offset="0.3276" style="stop-color:#C9DAEF"/>
			<stop  offset="0.5243" style="stop-color:#8DB2DF"/>
			<stop  offset="0.692" style="stop-color:#6295D3"/>
			<stop  offset="0.8221" style="stop-color:#4783CC"/>
			<stop  offset="0.8987" style="stop-color:#3D7CC9"/>
		</radialGradient>
		<path class="st10" d="M51.3,86.3c0,0,7.9-7.4,21.7-7.1c13.8,0.3,25.7,7.6,32.5,10.8c6.8,3.1,32.5,11.6,46.9-3.4
			c0,0-3.4-33.4-44-40.5c0,0-0.3,2.3,0.6,3.4c0.8,1.1,12.4,10.8,15.8,19c0,0-5.2-5.9-11.2-9.7c-6-3.9-25.5-18.1-35.6-7.3
			c0,0,5.6-1.5,11.9,1.1c6.2,2.6,15.4,7,20.2,13.8c0,0-29.5-21.6-45.6-5.4c0,0,8.1-2.1,14.2-0.9c6.1,1.2,17.7,4.5,20.9,9.5
			c0,0-33.6-16.9-44.1,3.5c0,0,6.7-4.2,17.9-3.7c11.2,0.5,20.4,5.4,20.4,5.4S53.7,64.3,51.3,86.3z"/>
		<g>
			<path class="st11" d="M108.3,46c40.7,7.1,44,40.5,44,40.5c-6.3,6.5-14.7,8.6-22.8,8.6c-10.4,0-20.3-3.5-24.1-5.2
				c-6.8-3.1-18.6-10.5-32.5-10.8c-0.2,0-0.5,0-0.7,0c-13.4,0-21,7.1-21,7.1c1.2-11.3,12.3-14,22.8-14c10,0,19.5,2.5,19.5,2.5
				s-9.2-4.9-20.4-5.4c-0.6,0-1.2,0-1.8,0c-10.1,0-16.1,3.7-16.1,3.7C59.3,65.4,66.6,63,74,63c12.4,0,25.5,6.6,25.5,6.6
				c-3.2-5-14.8-8.3-20.9-9.5c-1.4-0.3-2.9-0.4-4.4-0.4c-5,0-9.9,1.2-9.9,1.2c4.4-4.4,9.8-6,15.4-6c14.7,0,30.3,11.4,30.3,11.4
				c-4.8-6.8-14-11.2-20.2-13.8c-2.9-1.2-5.6-1.5-7.7-1.5c-2.5,0-4.1,0.4-4.1,0.4c2.7-2.9,6-4,9.6-4c9.9,0,21.5,8.4,26,11.3
				c6,3.9,11.2,9.7,11.2,9.7c-3.4-8.2-15-17.8-15.8-19C108.1,48.3,108.3,46,108.3,46 M108.3,45.5c-0.1,0-0.2,0-0.3,0.1
				c-0.1,0.1-0.2,0.2-0.2,0.4c0,0.3-0.3,2.5,0.7,3.8c0.2,0.3,0.7,0.7,1.8,1.7c2.8,2.6,8.7,8.2,12.2,13.7c-2.1-2.1-5.2-4.8-8.5-7
				c-0.4-0.3-1-0.6-1.5-1c-5.1-3.4-15.7-10.4-24.7-10.4c-4.1,0-7.4,1.4-10,4.2c-0.2,0.2-0.2,0.5-0.1,0.7c0.1,0.2,0.3,0.3,0.5,0.3
				c0,0,0.1,0,0.1,0c0,0,1.6-0.4,4-0.4c2.6,0,5.2,0.5,7.5,1.4c7.9,3.2,13.7,6.7,17.5,10.6c-5.4-3.3-16.6-9.4-27.3-9.4
				c-6.3,0-11.6,2.1-15.8,6.2c-0.2,0.2-0.2,0.5-0.1,0.7c0.1,0.2,0.3,0.3,0.5,0.3c0,0,0.1,0,0.1,0c0,0,4.8-1.2,9.7-1.2
				c1.6,0,3,0.1,4.2,0.4c6.5,1.3,14.7,4,18.7,7.3c-4.4-1.9-14-5.5-23.2-5.5c-9.2,0-15.6,3.5-19.2,10.4c-0.1,0.2-0.1,0.5,0.1,0.7
				c0.1,0.1,0.2,0.2,0.4,0.2c0.1,0,0.2,0,0.3-0.1c0.1,0,6-3.6,15.8-3.6c0.6,0,1.2,0,1.7,0c5.9,0.3,11.2,1.7,14.9,3.1
				c-3.7-0.6-8.8-1.3-14-1.3c-14.3,0-22.4,5-23.4,14.5c0,0.2,0.1,0.5,0.3,0.6c0.1,0,0.2,0.1,0.3,0.1c0.1,0,0.3-0.1,0.4-0.2
				c0.1-0.1,7.6-6.9,20.6-6.9c0.2,0,0.5,0,0.7,0c11.3,0.2,21.5,5.4,28.3,8.8c1.4,0.7,2.8,1.4,4,1.9c4.3,2,14.2,5.3,24.3,5.3
				c9.8,0,17.6-3,23.2-8.8c0.1-0.1,0.2-0.3,0.2-0.4c0-0.3-0.9-8.6-6.9-17.8C140.6,60.1,129.6,49.2,108.3,45.5
				C108.4,45.5,108.4,45.5,108.3,45.5L108.3,45.5z"/>
		</g>
		<path class="st12" d="M46.2,95.3c0,0-11,39.9,12.7,54.1c0,0-5.9-22.1-5.1-29.7c0,0,14.4,54.9,64.7,54.9c0,0-32.5-12.5-39.5-32
			c0,0,42.4,39.4,59.9,31.1c0,0-33-14.4-40.4-30.6c0,0,42.4,36.8,55.3,22.6c0,0-19.7,3.7-33.9-20.1c-2.5-4.3-7.9-16.7-9.9-21.5
			C108.1,119.4,92.5,83.4,46.2,95.3z"/>
	</g>
</g>
</svg>
