<?xml version="1.0" encoding="utf-8"?>
<!-- Generator: Adobe Illustrator 16.0.0, SVG Export Plug-In . SVG Version: 6.00 Build 0)  -->
<!DOCTYPE svg PUBLIC "-//W3C//DTD SVG 1.1//EN" "http://www.w3.org/Graphics/SVG/1.1/DTD/svg11.dtd">
<svg version="1.1" id="_x33_0" xmlns="http://www.w3.org/2000/svg" xmlns:xlink="http://www.w3.org/1999/xlink" x="0px" y="0px"
	 width="512px" height="512px" viewBox="0 0 512 512" enable-background="new 0 0 512 512" xml:space="preserve">
<path d="M363.528,148.155l9.236-9.235l9.235,9.235l-9.235,9.236L363.528,148.155z"/>
<path d="M351.558,160.151l-5.384,5.383c1.582,4.346,3.717,8.412,6.361,12.111l8.258-8.258L351.558,160.151z"/>
<path d="M336.504,184.211l-0.596,0.664c-9.244,9.262-10.12,23.27-9.755,31.204c7.944,0.4,21.772-0.399,30.83-9.458l1.021-0.91
	C349.321,200.243,341.973,192.895,336.504,184.211z"/>
<path d="M382.056,105.602l-5.384-5.384c-4.346,1.582-8.411,3.717-12.11,6.361l8.258,8.258L382.056,105.602z"/>
<path d="M352.535,118.605c-2.637,3.7-4.779,7.773-6.361,12.111l5.384,5.384l9.235-9.236L352.535,118.605z"/>
<path d="M384.79,126.893l9.236-9.236l9.236,9.236l-9.236,9.236L384.79,126.893z"/>
<path d="M415.344,114.837l8.258-8.258c-3.699-2.636-7.773-4.78-12.11-6.361l-5.383,5.384L415.344,114.837z"/>
<path d="M441.989,130.716c-1.582-4.346-3.716-8.411-6.361-12.111l-8.259,8.258l9.236,9.236L441.989,130.716z"/>
<path d="M451.659,112.04l0.595-0.664c9.245-9.261,10.122-23.269,9.756-31.204c-7.918-0.417-21.772,0.4-30.83,9.458l-1.021,0.91
	C438.842,96.008,446.19,103.356,451.659,112.04z"/>
<path d="M326.043,165.135h2.236c-1.412-5.451-2.236-11.124-2.236-17.009c0-5.886,0.824-11.558,2.236-17.01h-2.236
	c-14.424,0-25.999,10.614-31.672,17.01C300.036,154.512,311.619,165.135,326.043,165.135z"/>
<path d="M411.091,82.324v-2.237c0-14.424-10.614-25.999-17.009-31.672c-6.388,5.665-17.01,17.248-17.01,31.672v2.237
	c5.451-1.412,11.124-2.237,17.01-2.237C399.967,80.087,405.64,80.912,411.091,82.324z"/>
<path d="M384.781,169.417l9.236-9.236l9.236,9.236l-9.236,9.236L384.781,169.417z"/>
<path d="M372.819,181.413l-8.258,8.258c3.699,2.637,7.773,4.78,12.11,6.361l5.384-5.383L372.819,181.413z"/>
<path d="M441.989,165.535l-5.384-5.383l-9.235,9.236l8.258,8.258C438.264,173.946,440.407,169.872,441.989,165.535L441.989,165.535z
	"/>
<path d="M451.659,184.203c-5.46,8.684-12.808,16.04-21.501,21.5l0.664,0.595c9.271,9.253,23.278,10.104,31.204,9.755
	c0.4-7.901-0.399-21.772-9.458-30.83L451.659,184.203z"/>
<path d="M423.602,189.671l-8.258-8.258l-9.235,9.236l5.383,5.383C415.828,194.451,419.902,192.308,423.602,189.671z"/>
<path d="M394.082,247.836c6.387-5.665,17.009-17.239,17.009-31.672v-2.237c-5.451,1.412-11.124,2.237-17.009,2.237
	c-5.886,0-11.559-0.825-17.01-2.237v2.237C377.072,230.588,387.687,242.163,394.082,247.836L394.082,247.836z"/>
<path d="M406.044,148.155l9.236-9.235l9.235,9.235l-9.235,9.236L406.044,148.155z"/>
<path d="M462.12,131.116h-2.236c1.411,5.452,2.236,11.124,2.236,17.01c0,5.885-0.825,11.558-2.236,17.009h2.236
	c14.425,0,25.999-10.614,31.672-17.009C488.128,141.738,476.545,131.116,462.12,131.116z"/>
<path d="M47.341,180.086c5.46-8.684,12.809-16.04,21.5-21.5l-0.663-0.595c-9.27-9.245-23.286-10.129-31.205-9.755
	c-0.399,7.901,0.4,21.772,9.458,30.83L47.341,180.086z"/>
<path d="M92.893,173.64l-5.384-5.383c-4.346,1.582-8.411,3.717-12.111,6.361l8.258,8.258L92.893,173.64z"/>
<path d="M123.438,262.71l-8.258-8.258l-9.236,9.236l5.383,5.384C115.665,267.49,119.739,265.346,123.438,262.71L123.438,262.71z"/>
<path d="M87.909,284.202c0,14.425,10.614,25.999,17.01,31.672c6.387-5.664,17.009-17.239,17.009-31.672v-2.237
	c-5.451,1.412-11.124,2.237-17.009,2.237c-5.886,0-11.558-0.825-17.01-2.237V284.202z"/>
<path d="M36.88,216.164c0-5.886,0.825-11.559,2.237-17.01H36.88c-14.424,0-25.999,10.614-31.672,17.01
	c5.665,6.387,17.248,17.009,31.672,17.009h2.237C37.705,227.722,36.88,222.049,36.88,216.164z"/>
<path d="M74.391,216.151l9.236-9.236l9.235,9.236l-9.235,9.236L74.391,216.151z"/>
<path d="M172.957,216.164c0,5.885-0.825,11.558-2.236,17.009h2.236c14.424,0,26-10.614,31.672-17.009
	c-5.664-6.387-17.239-17.01-31.672-17.01h-2.236C172.132,204.605,172.957,210.278,172.957,216.164z"/>
<path d="M57.011,198.754l5.384,5.384l9.236-9.236l-8.258-8.258C60.736,190.343,58.592,194.417,57.011,198.754L57.011,198.754z"/>
<path d="M57.011,233.573c1.582,4.346,3.717,8.411,6.361,12.111l8.258-8.258l-9.236-9.236L57.011,233.573z"/>
<path d="M47.341,252.25l-0.596,0.664c-9.245,9.262-10.121,23.269-9.755,31.204c7.918,0.417,21.772-0.4,30.83-9.457l1.021-0.91
	C60.158,268.281,52.809,260.934,47.341,252.25z"/>
<path d="M92.893,258.688l-9.236-9.236l-8.258,8.258c3.7,2.636,7.773,4.78,12.111,6.361L92.893,258.688z"/>
<path d="M89.652,194.897l9.236-9.235l9.236,9.235l-9.236,9.236L89.652,194.897z"/>
<path d="M121.928,150.362v-2.237c0-14.424-10.614-26-17.009-31.672c-6.387,5.664-17.01,17.239-17.01,31.672v2.237
	c5.452-1.412,11.124-2.237,17.01-2.237C110.804,148.125,116.477,148.95,121.928,150.362z"/>
<path d="M162.496,252.241c-5.46,8.684-12.809,16.04-21.5,21.501l0.664,0.595c9.27,9.245,23.278,10.129,31.204,9.755
	c0.4-7.901-0.399-21.772-9.458-30.83L162.496,252.241z"/>
<path d="M157.826,203.754c-1.582-4.346-3.716-8.411-6.361-12.111l-8.258,8.258l9.236,9.236L157.826,203.754z"/>
<path d="M126.18,182.876l8.258-8.258c-3.7-2.636-7.773-4.78-12.111-6.361l-5.383,5.383L126.18,182.876z"/>
<path d="M162.496,180.078l0.595-0.664c9.245-9.262,10.121-23.269,9.755-31.204c-7.935-0.399-21.772,0.4-30.83,9.458l-1.021,0.91
	C149.679,164.046,157.027,171.395,162.496,180.078L162.496,180.078z"/>
<path d="M317.538,353.185c-26.662,0-47.176,19.654-59.219,36.563c2.263-74.333,13.226-166.592,60.674-201.717
	c-2.722-5.104-4.899-10.529-6.541-16.185c-73.438,49.447-72.196,205.527-71.56,282.198v0.111
	c-7.033-14.152-16.907-40.331-16.907-76.399c0-61.218-0.008-105.468-36.392-141.953c-1.497,6.311-3.691,12.34-6.506,18.021
	c24.009,28.279,25.744,62.978,25.872,112.212c-8.922-9.849-25.268-22.299-51.012-22.299c-34.02,0-76.543,25.514-76.543,25.514
	s51.029,51.029,85.048,51.029c21.058,0,35.558-6.515,43.587-11.474c-2.722-1.599-5.324-3.274-7.799-4.966
	c-12.085-8.241-25.778-17.58-69.808-17.58v-17.01c46.274,0,63.82,10.045,76.9,18.847c0.34,7.017,0.953,13.702,1.872,19.936
	c-0.4,0.263-0.723,0.502-1.166,0.773c0.476,0.281,0.961,0.536,1.438,0.816c3.81,24.478,11.269,42.797,17.043,53.964
	c4.397-2.773,9.346-5.129,14.833-6.788c5.068-1.53,10.563-2.482,16.559-2.491c0-0.136,0-0.264,0-0.399
	c-0.06-6.889-0.119-14.458-0.128-22.538c20.634,3.802,75.038,11.976,102.279-1.642c34.02-17.01,68.038-68.038,68.038-68.038
	C402.587,370.194,368.567,353.185,317.538,353.185L317.538,353.185z M360.063,395.708c-39.931,0-85.328,15.19-102.287,29.521
	c0.017-6.592,0.067-13.481,0.187-20.607c25.123-14.653,67.452-25.923,102.101-25.923V395.708z"/>
<rect x="117.501" y="191.934" transform="matrix(0.7071 -0.7071 0.7071 0.7071 -104.6022 147.2706)" width="15.927" height="15.928"/>
<rect x="112.59" y="183.644" transform="matrix(0.7071 -0.7071 0.7071 0.7071 -98.3658 136.9953)" width="7.167" height="7.167"/>
<rect x="131.454" y="183.925" transform="matrix(0.7071 -0.7071 0.7071 0.7071 -93.037 150.4064)" width="7.168" height="7.167"/>
<g>
	<defs>
		<rect id="SVGID_1_" x="84.088" y="180.078" width="82.7" height="82.7"/>
	</defs>
	<clipPath id="SVGID_2_">
		<use xlink:href="#SVGID_1_"  overflow="visible"/>
	</clipPath>
	<path clip-path="url(#SVGID_2_)" d="M127.717,215.665l3.379,3.378l6.193-6.194l2.631,2.629l-6.194,6.195l3.379,3.378l6.194-6.194
		l2.624,2.624l-6.194,6.194l3.378,3.379l6.194-6.194l2.63,2.629l-8.446,8.447l-18.02-18.02l-18.031,18.031l-8.447-8.447l2.625-2.624
		l6.07,6.07l3.379-3.379l-6.07-6.07l2.629-2.629l6.07,6.07l3.379-3.379l-6.07-6.07l2.63-2.63l6.07,6.07l3.379-3.378l-9.449-9.449
		L94.01,225.721c-0.983,0.983-0.983,2.577,0,3.561l31.443,31.443l31.455-31.454c0.983-0.983,0.983-2.578,0-3.561l-19.619-19.618
		L127.717,215.665z M140.106,239.315l-14.652,14.652l-14.641-14.641l14.652-14.652L140.106,239.315z"/>
	
		<rect x="118.299" y="233.275" transform="matrix(-0.7071 -0.7071 0.7071 -0.7071 44.1523 499.173)" clip-path="url(#SVGID_2_)" width="14.333" height="14.334"/>
</g>
<rect x="331.784" y="55.271" transform="matrix(0.7071 -0.7071 0.7071 0.7071 54.8005 258.7649)" width="15.927" height="15.928"/>
<rect x="326.873" y="46.981" transform="matrix(0.7071 -0.7071 0.7071 0.7071 61.0435 248.491)" width="7.167" height="7.167"/>
<rect x="345.737" y="47.262" transform="matrix(0.7071 -0.7071 0.7071 0.7071 66.3604 261.8995)" width="7.168" height="7.167"/>
<g>
	<defs>
		<rect id="SVGID_3_" x="298.371" y="43.415" width="82.7" height="82.7"/>
	</defs>
	<clipPath id="SVGID_4_">
		<use xlink:href="#SVGID_3_"  overflow="visible"/>
	</clipPath>
	<path clip-path="url(#SVGID_4_)" d="M342,79.002l3.379,3.378l6.193-6.194l2.631,2.629l-6.194,6.195l3.379,3.378l6.194-6.194
		l2.624,2.624l-6.194,6.194l3.378,3.379l6.194-6.194l2.63,2.629l-8.446,8.447l-18.02-18.02l-18.031,18.031l-8.447-8.447l2.625-2.624
		l6.07,6.07l3.379-3.379l-6.07-6.07l2.629-2.629l6.07,6.07l3.379-3.379l-6.07-6.07l2.63-2.63l6.07,6.07l3.379-3.378l-9.449-9.449
		l-19.618,19.618c-0.983,0.983-0.983,2.577,0,3.561l31.443,31.443l31.455-31.454c0.983-0.983,0.983-2.578,0-3.561l-19.619-19.618
		L342,79.002z M354.389,102.652l-14.652,14.652l-14.641-14.641l14.652-14.652L354.389,102.652z"/>
	
		<rect x="332.581" y="96.612" transform="matrix(-0.7071 -0.7071 0.7071 -0.7071 506.5886 417.4073)" clip-path="url(#SVGID_4_)" width="14.333" height="14.334"/>
</g>
</svg>
