<?xml version="1.0" encoding="utf-8"?>
<!-- Generator: Adobe Illustrator 24.0.0, SVG Export Plug-In . SVG Version: 6.00 Build 0)  -->
<svg version="1.1" id="Capa_1" xmlns="http://www.w3.org/2000/svg" xmlns:xlink="http://www.w3.org/1999/xlink" x="0px" y="0px"
	 viewBox="0 0 512 512" style="enable-background:new 0 0 512 512;" xml:space="preserve">
<style type="text/css">
	.st0{clip-path:url(#SVGID_2_);fill:#FFFFFF;}
	.st1{clip-path:url(#SVGID_4_);fill:#FFFFFF;}
	.st2{clip-path:url(#SVGID_6_);fill:#FFFFFF;}
	.st3{clip-path:url(#SVGID_8_);}
	.st4{clip-path:url(#SVGID_10_);fill:#FFFFFF;}
	.st5{clip-path:url(#SVGID_12_);fill:#FFFFFF;}
</style>
<g id="Capa_2_1_">
	<path id="Shape" d="M485.8,465.4H32.3c4.5,26.2,27.2,45.5,53.8,45.5H432C458.6,510.8,481.3,491.6,485.8,465.4z"/>
	<path id="Shape_3_" d="M422.9,37.5v-9.1c0-15.1-12.2-27.3-27.3-27.3H122.5c-15.1,0-27.3,12.2-27.3,27.3v9.1H422.9z"/>
	<path id="Shape_4_" d="M432,92.2c-21.6,0-40.3-15.2-44.6-36.4H130.7c-4.4,21.2-23,36.4-44.6,36.4c-26.6,0-49.3,19.3-53.8,45.5
		h453.5C481.3,111.4,458.6,92.2,432,92.2L432,92.2z"/>
	<path d="M31.4,155.9v291.3h455.1V155.9H31.4z M67.8,419.8c0,5-4.1,9.1-9.1,9.1c-5,0-9.1-4.1-9.1-9.1V228.7c0-5,4.1-9.1,9.1-9.1
		c5,0,9.1,4.1,9.1,9.1V419.8z M67.8,192.3c0,5-4.1,9.1-9.1,9.1c-5,0-9.1-4.1-9.1-9.1v-9.1c0-5,4.1-9.1,9.1-9.1c5,0,9.1,4.1,9.1,9.1
		V192.3z"/>
	<g>
		<g>
			<g>
				<defs>
					
						<rect id="SVGID_1_" x="194.5" y="186.6" transform="matrix(0.7071 -0.7071 0.7071 0.7071 -115.7484 290.7012)" width="197" height="197"/>
				</defs>
				<clipPath id="SVGID_2_">
					<use xlink:href="#SVGID_1_"  style="overflow:visible;"/>
				</clipPath>
				
					<rect x="237.8" y="229.8" transform="matrix(0.7071 -0.7071 0.7071 0.7071 -100.6827 254.4553)" class="st0" width="37.9" height="37.9"/>
			</g>
			<g>
				<defs>
					
						<rect id="SVGID_3_" x="209.4" y="162.1" transform="matrix(0.7071 -0.7071 0.7071 0.7071 -94.0826 294.0356)" width="197" height="197"/>
				</defs>
				<clipPath id="SVGID_4_">
					<use xlink:href="#SVGID_3_"  style="overflow:visible;"/>
				</clipPath>
				
					<rect x="226.1" y="210" transform="matrix(0.7071 -0.7071 0.7071 0.7071 -85.8269 229.9672)" class="st1" width="17.1" height="17.1"/>
			</g>
			<g>
				<defs>
					
						<rect id="SVGID_5_" x="222.1" y="194.1" transform="matrix(0.7071 -0.7071 0.7071 0.7071 -112.9821 312.3756)" width="197" height="197"/>
				</defs>
				<clipPath id="SVGID_6_">
					<use xlink:href="#SVGID_5_"  style="overflow:visible;"/>
				</clipPath>
				
					<rect x="271.1" y="210.7" transform="matrix(0.7071 -0.7071 0.7071 0.7071 -73.1501 261.942)" class="st2" width="17.1" height="17.1"/>
			</g>
			<g>
				<defs>
					<rect id="SVGID_7_" x="158.3" y="201.6" width="197" height="197"/>
				</defs>
				<clipPath id="SVGID_8_">
					<use xlink:href="#SVGID_7_"  style="overflow:visible;"/>
				</clipPath>
				<g class="st3">
					<g>
						<defs>
							<rect id="SVGID_9_" x="158.3" y="201.6" width="197" height="197"/>
						</defs>
						<clipPath id="SVGID_10_">
							<use xlink:href="#SVGID_9_"  style="overflow:visible;"/>
						</clipPath>
						<path class="st4" d="M262.2,286.3l8,8l14.8-14.8l6.3,6.3l-14.8,14.8l8,8l14.8-14.8l6.3,6.3l-14.8,14.8l8,8l14.8-14.8l6.3,6.3
							l-20.1,20.1l-42.9-42.9l-42.9,42.9l-20.1-20.1l6.3-6.3l14.5,14.5l8-8L208,300.2l6.3-6.3l14.5,14.5l8-8l-14.5-14.5l6.3-6.3
							l14.5,14.5l8-8l-22.5-22.5l-46.7,46.7c-2.3,2.3-2.3,6.1,0,8.5l74.9,74.9l74.9-74.9c2.3-2.3,2.3-6.1,0-8.5L285,263.5
							L262.2,286.3z M291.7,342.7l-34.9,34.9l-34.9-34.9l34.9-34.9L291.7,342.7z"/>
					</g>
					<g>
						<defs>
							
								<rect id="SVGID_11_" x="126.3" y="278.9" transform="matrix(0.7071 -0.7071 0.7071 0.7071 -201.0181 269.5248)" width="197" height="197"/>
						</defs>
						<clipPath id="SVGID_12_">
							<use xlink:href="#SVGID_11_"  style="overflow:visible;"/>
						</clipPath>
						
							<rect x="239.7" y="328.3" transform="matrix(0.7071 -0.7071 0.7071 0.7071 -168.976 282.7457)" class="st5" width="34.1" height="34.1"/>
					</g>
				</g>
			</g>
		</g>
	</g>
</g>
<g id="Capa_3">
</g>
</svg>
