<?xml version="1.0" encoding="utf-8"?>
<!-- Generator: Adobe Illustrator 16.0.0, SVG Export Plug-In . SVG Version: 6.00 Build 0)  -->
<!DOCTYPE svg PUBLIC "-//W3C//DTD SVG 1.1//EN" "http://www.w3.org/Graphics/SVG/1.1/DTD/svg11.dtd">
<svg version="1.1" id="Capa_4" xmlns="http://www.w3.org/2000/svg" xmlns:xlink="http://www.w3.org/1999/xlink" x="0px" y="0px"
	 width="512px" height="512px" viewBox="0 0 512 512" enable-background="new 0 0 512 512" xml:space="preserve">
<line fill="#FFFFFF" stroke="#000000" stroke-width="10" stroke-miterlimit="10" x1="407.437" y1="401.834" x2="407.437" y2="166.448"/>
<line fill="#FFFFFF" stroke="#000000" stroke-width="10" stroke-miterlimit="10" x1="132.843" y1="401.834" x2="132.843" y2="166.448"/>
<line fill="#FFFFFF" stroke="#000000" stroke-width="10" stroke-miterlimit="10" x1="407.437" y1="398.457" x2="132.843" y2="398.457"/>
<line fill="#FFFFFF" stroke="#000000" stroke-width="10" stroke-miterlimit="10" x1="132.843" y1="194.995" x2="407.437" y2="194.995"/>
<g>
	<path d="M214.267,288.344c0.872,1.744,2.654,2.846,4.604,2.846h50.184l20.586-41.17l-19.164-38.669
		c-0.871-1.744-2.653-2.845-4.602-2.845h-47.005c-1.949,0-3.732,1.102-4.604,2.845l-18.011,36.368c-0.724,1.448-0.724,3.154,0,4.603
		L214.267,288.344z M214.122,247.718l10.293-20.929c0.874-1.744,2.653-2.845,4.603-2.845h26.71c1.95,0,3.729,1.102,4.604,2.845
		l10.293,20.929c0.724,1.447,0.724,3.155,0,4.603l-10.293,20.586c-0.874,1.744-2.653,2.844-4.604,2.844h-26.71
		c-1.949,0-3.729-1.1-4.603-2.844l-10.293-20.586C213.398,250.873,213.398,249.164,214.122,247.718z"/>
	<path d="M252.546,358.436l7.72-15.783l-7.72-15.438H232.2l-7.72,15.438l7.72,15.783H252.546z"/>
	<path d="M214.267,381.321c0.872,1.744,2.654,2.846,4.604,2.846h47.004c1.948,0,3.73-1.102,4.602-2.844l19.164-38.671l-20.586-41.17
		h-50.185c-1.949,0-3.732,1.102-4.604,2.846l-18.011,36.023c-0.724,1.448-0.724,3.154,0,4.604L214.267,381.321z M214.122,340.352
		l10.293-20.586c0.874-1.743,2.653-2.844,4.603-2.844h26.71c1.95,0,3.729,1.101,4.604,2.844l10.293,20.586
		c0.724,1.447,0.724,3.156,0,4.604l-10.293,20.929c-0.874,1.743-2.653,2.844-4.604,2.844h-26.71c-1.949,0-3.729-1.101-4.603-2.844
		l-10.293-20.929C213.398,343.508,213.398,341.799,214.122,340.352L214.122,340.352z"/>
	<path d="M232.542,232.118l-7.719,15.439l7.719,15.439h19.66l7.721-15.439l-7.721-15.439H232.542z"/>
	<path d="M352.818,258.01c-0.871-1.744-2.653-2.845-4.602-2.845h-49.641l-20.585,41.171l20.585,41.172h26.482
		c2.842,0,5.145,2.302,5.145,5.145v31.222c4.297,1.959,4.939,12.204,10.293,10.293c6.51-2.323,7.338-8.334,10.293-10.293v-36.366
		l20.043-38.871c0.733-1.424,0.745-3.113,0.028-4.546L352.818,258.01z M352.965,298.637l-10.293,20.586
		c-0.872,1.744-2.652,2.845-4.601,2.845h-26.025c-1.951,0-3.731-1.103-4.604-2.846l-10.292-20.585c-0.725-1.448-0.725-3.153,0-4.604
		l10.292-20.584c0.873-1.744,2.653-2.846,4.604-2.846h26.025c1.948,0,3.729,1.102,4.601,2.845l10.293,20.585
		C353.689,295.483,353.689,297.188,352.965,298.637z"/>
</g>
<rect x="320.072" y="278.568" transform="matrix(0.7071 -0.7071 0.7071 0.7071 -105.1494 312.5492)" width="9.267" height="9.266"/>
<rect x="317.215" y="273.745" transform="matrix(0.707 -0.7072 0.7072 0.707 -101.5155 306.6375)" width="4.17" height="4.17"/>
<rect x="328.19" y="273.909" transform="matrix(0.7069 -0.7073 0.7073 0.7069 -98.4095 314.5181)" width="4.169" height="4.171"/>
<g>
	<defs>
		<rect id="SVGID_1_" x="300.633" y="271.671" width="48.115" height="48.113"/>
	</defs>
	<clipPath id="SVGID_2_">
		<use xlink:href="#SVGID_1_"  overflow="visible"/>
	</clipPath>
	<path clip-path="url(#SVGID_2_)" d="M326.016,292.374l1.966,1.967l3.604-3.604l1.53,1.53l-3.604,3.604l1.965,1.965l3.604-3.603
		l1.527,1.526l-3.604,3.604l1.966,1.966l3.604-3.604l1.531,1.531l-4.914,4.914l-10.484-10.484l-10.49,10.49l-4.914-4.914
		l1.526-1.527l3.532,3.532l1.965-1.966l-3.531-3.531l1.53-1.53l3.531,3.531l1.966-1.964l-3.531-3.532l1.529-1.531l3.531,3.532
		l1.967-1.966l-5.498-5.497l-11.413,11.413c-0.572,0.572-0.572,1.499,0,2.071l18.294,18.293l18.299-18.299
		c0.572-0.572,0.572-1.498,0-2.071l-11.413-11.413L326.016,292.374z M333.223,306.136l-8.523,8.523l-8.519-8.52l8.524-8.523
		L333.223,306.136z"/>
	
		<rect x="320.535" y="302.62" transform="matrix(-0.707 -0.7072 0.7072 -0.707 337.2996 753.325)" clip-path="url(#SVGID_2_)" width="8.34" height="8.339"/>
</g>
<rect x="230.631" y="16.67" width="58.736" height="44.053"/>
<rect x="27.117" y="125.332" stroke="#FFFFFF" stroke-miterlimit="10" width="475.766" height="41.116"/>
<path stroke="#FFFFFF" stroke-miterlimit="10" d="M38.953,120.735c0,0,162.509-60.012,221.313-60.012S491.5,120.735,491.5,120.735
	H38.953z"/>
<path stroke="#FFFFFF" stroke-miterlimit="10" d="M285.183,453.523c-5.44-7.646-14.619-11.656-21.718-17.488
	c-5.274-4.331-9.485-10.999-15.295-14.85c0.677,2.851-0.871,6.314-4.669,6.314h-1.178c-2.599,1.47-5.324,2.672-8.15,3.602
	l0.863,0.863c1.926,1.926,1.926,5.145,0,7.07c-0.84,0.841-1.929,1.292-3.046,1.399c1.037,2.998-0.436,6.826-4.454,6.566
	c16.271,5.851,30.912,9.887,40.638,10.041c4.956,0.078,11.113-0.818,18.046-2.417C285.846,454.324,285.495,453.963,285.183,453.523z
	"/>
<path stroke="#FFFFFF" stroke-miterlimit="10" d="M224.701,424.062c0.151-0.167,0.321-0.323,0.505-0.469
	c0.645-1.332,1.866-2.364,3.668-2.558c0.274-1.022,0.827-1.958,1.685-2.607c0.294-2.461,2.411-4.428,4.941-4.428h3
	c0.011,0,0.021,0.003,0.033,0.004c0.573-1.507,1.829-2.716,3.768-2.954c1.021-1.467,2.786-2.262,5.028-1.371
	c10.091,4.006,14.89,13.147,23.27,19.329c8.183,6.035,17.212,11.027,23.219,19.469c1.018,1.431,1.114,2.838,0.647,4.028
	c45.073-12.684,112.9-47.568,112.9-47.568L124.5,400.457c0,0,35.766,18.733,73.036,34.644c0.766-1.13,2.082-1.836,3.964-1.601
	c8.107,1.014,16.139,2.637,24.28,3.351l-3.816-3.815c-1.313-1.313-1.708-3.221-1.232-4.916
	C221.035,426.159,222.36,424.392,224.701,424.062z"/>
<path stroke="#FFFFFF" stroke-miterlimit="10" d="M259.604,475.386c8.359-6.51,17.843-11.634,24.344-20.192h-43.317v34.593
	C247.562,486.053,253.463,480.169,259.604,475.386z"/>
<path stroke="#FFFFFF" stroke-miterlimit="10" d="M294.188,455.193c0.378,1.147,0.241,2.478-0.703,3.83
	c-7.697,11.019-18.923,16.947-29.081,25.228c-7.407,6.038-14.807,13.033-23.772,16.597v0.652h65.002v-46.307H294.188z"/>
<g>
	<g id="XMLID_1_">
		<g>
			<path d="M419.396,361.909c38.49,14.32,47.19,30.91,47.19,42.61c0,29.21-54.94,53.77-136.72,61.109l-8.07,0.73
				c-4.46,0.4-8.44-2.41-8.9-6.27l-1.67-14c-0.47-3.86,2.771-7.32,7.22-7.721l8.07-0.72c77.89-7,106.49-27.99,107.64-33.31
				c-0.199-1.23-5.189-7.83-23.859-15.301c-0.93,0.96-1.96,1.86-3.03,2.71v-7.659C412.446,377.329,416.276,369.689,419.396,361.909z
				"/>
			<path d="M283.717,443.81c6.33,5.49,6.33,14.399,0,19.89l-36.72,31.851c-3.17,2.75-8.3,2.75-11.47,0l-11.47-9.95
				c-3.17-2.74-3.17-7.2,0-9.94l9.99-8.66c-90.99-4.62-156.46-29.89-156.46-62.479c0-11.25,8.1-27.03,43.12-41.021
				c0.18,1.4,6.05-4.26,4.45-0.39c-5.88,14.31-3.13,20.78,6.76,26.74c-17.13,7.17-21.68,13.25-21.88,14.72
				c1,7.2,40.93,29.31,121.92,34.14l-4.3-3.729c-3.17-2.75-3.17-7.2,0-9.95l11.46-9.95c3.17-2.739,8.31-2.739,11.48,0
				L283.717,443.81z"/>
			<path d="M147.927,397.6c-2.62-0.82-5.09-1.92-7.35-3.28C142.837,395.359,145.287,396.439,147.927,397.6z"/>
			<path d="M133.887,389.039c1.94,2.011,4.19,3.801,6.69,5.28c-3.31-1.54-6.21-2.99-8.66-4.47
				C132.557,389.579,133.217,389.31,133.887,389.039z"/>
		</g>
		<g>
		</g>
	</g>
</g>
</svg>
