<?xml version="1.0" encoding="utf-8"?>
<!-- Generator: Adobe Illustrator 24.0.0, SVG Export Plug-In . SVG Version: 6.00 Build 0)  -->
<svg version="1.1" id="Capa_1" xmlns="http://www.w3.org/2000/svg" xmlns:xlink="http://www.w3.org/1999/xlink" x="0px" y="0px"
	 viewBox="0 0 512 512" style="enable-background:new 0 0 512 512;" xml:space="preserve">
<style type="text/css">
	.st0{clip-path:url(#SVGID_2_);fill:#FFFFFF;}
	.st1{clip-path:url(#SVGID_4_);fill:#FFFFFF;}
	.st2{clip-path:url(#SVGID_6_);fill:#FFFFFF;}
	.st3{clip-path:url(#SVGID_8_);}
	.st4{clip-path:url(#SVGID_10_);fill:#FFFFFF;}
	.st5{clip-path:url(#SVGID_12_);fill:#FFFFFF;}
	.st6{clip-path:url(#SVGID_14_);}
	.st7{fill:none;}
</style>
<g id="Capa_2_1_">
	<path id="Shape" d="M329,146.4H200.9c1.3,7.4,7.7,12.8,15.2,12.9h97.7C321.3,159.2,327.7,153.8,329,146.4z"/>
	<path id="Shape_3_" d="M311.2,25.6V23c0-4.3-3.5-7.7-7.7-7.7h-77.1c-4.3,0-7.7,3.5-7.7,7.7v2.6H311.2z"/>
	<path id="Shape_4_" d="M313.8,41c-6.1,0-11.4-4.3-12.6-10.3h-72.5c-1.2,6-6.5,10.3-12.6,10.3c-7.5,0-13.9,5.4-15.2,12.9H329
		C327.7,46.4,321.3,41,313.8,41L313.8,41z"/>
	<path d="M200.7,59v82.3h128.5V59H200.7z M211,133.5c0,1.4-1.1,2.6-2.6,2.6c-1.4,0-2.6-1.1-2.6-2.6v-54c0-1.4,1.2-2.6,2.6-2.6
		c1.4,0,2.6,1.2,2.6,2.6V133.5z M211,69.3c0,1.4-1.1,2.6-2.6,2.6c-1.4,0-2.6-1.2-2.6-2.6v-2.6c0-1.4,1.2-2.6,2.6-2.6
		c1.4,0,2.6,1.2,2.6,2.6V69.3z"/>
	<g>
		<g>
			<g>
				<defs>
					
						<rect id="SVGID_1_" x="246.7" y="67.7" transform="matrix(0.7071 -0.7071 0.7071 0.7071 12.8973 222.1095)" width="55.6" height="55.6"/>
				</defs>
				<clipPath id="SVGID_2_">
					<use xlink:href="#SVGID_1_"  style="overflow:visible;"/>
				</clipPath>
				
					<rect x="259" y="79.9" transform="matrix(0.7071 -0.7071 0.7071 0.7071 17.1517 211.8745)" class="st0" width="10.7" height="10.7"/>
			</g>
			<g>
				<defs>
					
						<rect id="SVGID_3_" x="251" y="60.7" transform="matrix(0.7071 -0.7072 0.7072 0.7071 19.0377 223.0799)" width="55.6" height="55.6"/>
				</defs>
				<clipPath id="SVGID_4_">
					<use xlink:href="#SVGID_3_"  style="overflow:visible;"/>
				</clipPath>
				
					<rect x="255.7" y="74.3" transform="matrix(0.7071 -0.7072 0.7072 0.7071 21.3668 204.9853)" class="st1" width="4.8" height="4.8"/>
			</g>
			<g>
				<defs>
					
						<rect id="SVGID_5_" x="254.5" y="69.8" transform="matrix(0.7071 -0.7072 0.7072 0.7071 13.7029 228.2584)" width="55.6" height="55.6"/>
				</defs>
				<clipPath id="SVGID_6_">
					<use xlink:href="#SVGID_5_"  style="overflow:visible;"/>
				</clipPath>
				
					<rect x="268.4" y="74.5" transform="matrix(0.7071 -0.7072 0.7072 0.7071 24.9508 214.0136)" class="st2" width="4.8" height="4.8"/>
			</g>
			<g>
				<defs>
					<rect id="SVGID_7_" x="236.5" y="71.9" width="55.6" height="55.6"/>
				</defs>
				<clipPath id="SVGID_8_">
					<use xlink:href="#SVGID_7_"  style="overflow:visible;"/>
				</clipPath>
				<g class="st3">
					<g>
						<defs>
							<rect id="SVGID_9_" x="236.5" y="71.9" width="55.6" height="55.6"/>
						</defs>
						<clipPath id="SVGID_10_">
							<use xlink:href="#SVGID_9_"  style="overflow:visible;"/>
						</clipPath>
						<path class="st4" d="M265.8,95.8l2.3,2.3l4.2-4.2l1.8,1.8l-4.2,4.2l2.3,2.3l4.2-4.2l1.8,1.8l-4.2,4.2l2.3,2.3l4.2-4.2l1.8,1.8
							l-5.7,5.7l-12.1-12.1l-12.1,12.1l-5.7-5.7l1.8-1.8l4.1,4.1l2.3-2.3l-4.1-4.1l1.8-1.8l4.1,4.1l2.3-2.3l-4.1-4.1l1.8-1.8
							l4.1,4.1l2.3-2.3l-6.4-6.4l-13.2,13.2c-0.7,0.7-0.7,1.7,0,2.4l21.1,21.1l21.2-21.2c0.7-0.7,0.7-1.7,0-2.4l-13.2-13.2
							L265.8,95.8z M274.2,111.7l-9.9,9.9l-9.8-9.8l9.9-9.9L274.2,111.7z"/>
					</g>
					<g>
						<defs>
							
								<rect id="SVGID_11_" x="227.5" y="93.8" transform="matrix(0.7071 -0.7071 0.7071 0.7071 -11.1848 216.1256)" width="55.6" height="55.6"/>
						</defs>
						<clipPath id="SVGID_12_">
							<use xlink:href="#SVGID_11_"  style="overflow:visible;"/>
						</clipPath>
						
							<rect x="259.5" y="107.7" transform="matrix(0.7071 -0.7071 0.7071 0.7071 -2.1372 219.8587)" class="st5" width="9.6" height="9.6"/>
					</g>
				</g>
			</g>
		</g>
	</g>
	<g>
		<g>
			<g>
				<defs>
					
						<rect id="SVGID_13_" x="257.2" y="290.1" transform="matrix(0.999 -4.499942e-02 4.499942e-02 0.999 -15.6469 15.0281)" width="137.5" height="129.9"/>
				</defs>
				<clipPath id="SVGID_14_">
					<use xlink:href="#SVGID_13_"  style="overflow:visible;"/>
				</clipPath>
				<polygon class="st6" points="343.2,320.4 325.3,338.9 305.8,322.1 323.7,303.6 				"/>
			</g>
			<g>
				
					<rect x="257.2" y="290.1" transform="matrix(0.999 -4.499942e-02 4.499942e-02 0.999 -15.6469 15.0281)" class="st7" width="137.5" height="129.9"/>
				<polygon points="316.6,301.7 308.5,310 299.8,302.4 307.8,294.1 				"/>
			</g>
			<g>
				
					<rect x="257.2" y="290.1" transform="matrix(0.999 -4.499942e-02 4.499942e-02 0.999 -15.6469 15.0281)" class="st7" width="137.5" height="129.9"/>
				<polygon points="347.9,300.7 339.9,309.1 331.1,301.5 339.2,293.1 				"/>
			</g>
			<g>
				<polyline class="st7" points="397.6,416.9 260.2,423 254.4,293.2 391.7,287.1 				"/>
				<g>
					<g>
						<path d="M329.4,345.8l5.9,5.1l9.8-10.2l4.6,3.9l-9.8,10.2l5.8,5.1l9.8-10.2l4.5,3.9l-9.8,10.2l5.8,5l9.8-10.2l4.6,3.9
							L357,376.5l-31.2-26.9l-28.7,29.6l-14.6-12.6l4.2-4.3l10.5,9.1l5.4-5.6l-10.5-9.1l4.2-4.3l10.5,9.1l5.4-5.6l-10.5-9.1l4.2-4.3
							l10.5,9.1l5.4-5.6l-16.4-14.1l-31.2,32.3c-1.6,1.6-1.5,4.1,0.3,5.6l54.4,47l50-51.7c1.6-1.6,1.5-4.1-0.3-5.6l-34-29.3
							L329.4,345.8z M351.6,382l-23.3,24.1L303,384.2l23.3-24.1L351.6,382z"/>
					</g>
					<g>
						<polygon points="326.6,369 344.2,384.1 328.1,400.8 310.5,385.6 						"/>
					</g>
				</g>
			</g>
		</g>
	</g>
	<g>
		<path d="M255.3,267.3v165.3l134-25v-80.5c0-3.4,3-6,6.4-5.6l16.5,2.5c2.9,0.3,5.1,2.7,5.1,5.6v93.6c0,2.7-1.9,5-4.5,5.5l-146.7,31
			c-7.1,1.5-14.4,1.5-21.5,0l-145.1-30c-2.6-0.5-4.5-2.8-4.6-5.4l-2.5-95c-0.1-3,2.2-5.5,5.2-5.8l123.3-10.6c2.1-0.2,4-1.5,4.8-3.5
			l18.6-44.3C246.7,259.4,255.3,261.1,255.3,267.3z M91,213.2l-38.7,81.2c-1.9,4,1.3,8.4,5.8,8L203.4,288c2.1-0.2,3.8-1.5,4.7-3.3
			l46.7-103.4L95.2,210C93.4,210.4,91.8,211.5,91,213.2z M254.8,181.2l49.5,106.6c0.9,1.9,2.7,3.1,4.8,3.3l145,11.5
			c4.4,0.3,7.5-4,5.7-8l-37.8-81.4c-0.8-1.7-2.4-2.9-4.2-3.2L254.8,181.2z"/>
	</g>
</g>
<g id="Capa_3">
</g>
</svg>
