<?xml version="1.0" encoding="utf-8"?>
<!-- Generator: Adobe Illustrator 24.0.0, SVG Export Plug-In . SVG Version: 6.00 Build 0)  -->
<svg version="1.1" id="Capa_1" xmlns="http://www.w3.org/2000/svg" xmlns:xlink="http://www.w3.org/1999/xlink" x="0px" y="0px"
	 viewBox="0 0 512 512" style="enable-background:new 0 0 512 512;" xml:space="preserve">
<style type="text/css">
	.st0{fill:#FFFFFF;}
</style>
<g id="Capa_2_1_">
	<path d="M238.2,257.3h18.1v-27.2h-18.1V257.3z M274.4,294.4c0,9.5,7.7,17.2,17.2,17.2H356c-0.5-17-12-31.7-28.4-36.2h-53.2
		L274.4,294.4L274.4,294.4z M220.1,294.4v-19.1h-27.2v-18.1h27.2v-27.2h-45.3v36.2c0,4.2-2.8,7.8-6.9,8.8
		c-16.9,4.2-28.9,19.1-29.4,36.5h64.3C212.4,311.6,220,303.9,220.1,294.4z M238.2,194.4v17.5h18.1V196c0-11.5,5.6-22.2,14.9-28.8
		l0.2-0.1c5.1-3.6,9.5-8.1,13-13.2l-1.7,0.3c-12.3,2.5-25,0-35.4-7c-6.8-4.5-15.2-6-23.2-4l-3.6,0.9c-1.4,9.6,1.1,18.4,6.9,24.3
		C234.3,175.3,238.2,184.7,238.2,194.4L238.2,194.4z M274.4,257.3h45.3v-27.2h-45.3V257.3z M376.5,3.5c-4.6,0-9,2-12,5.6l-78.7,93
		c-2.4,2.9-6.3,3.9-9.9,2.7c-12.8-4.4-29.6,0.7-41.6,12.8c-2.1,2.1-4,4.4-5.7,6.8c0.8,0,1.6-0.1,2.4-0.1c9.3,0,18.4,2.7,26.2,7.9
		c6.4,4.3,14.3,5.9,21.8,4.3l13.2-2.6c0.7-4.8,0.2-9.6-1.3-14.2c-1.2-3.5-0.1-7.5,2.7-9.9l93-78.7c6.6-5.6,7.5-15.5,1.9-22.1
		C385.6,5.5,381.2,3.5,376.5,3.5z M291.6,329.8H356v142.4c0,21.4-17.4,38.8-38.8,38.8H164.9c-1.9-10.7-7-20.6-14.7-28.3
		c-1.3-1.3-2.5-2.7-3.6-4.2c-1.3-1.7-2.4-3.6-3.4-5.5l-4.8-9.5V329.8h64.4c19.5,0,35.3-15.8,35.3-35.3v-19.1h18.1v19.1
		C256.3,313.9,272.1,329.7,291.6,329.8z M174.7,384.1h-18.1v72.5h18.1V384.1z M174.7,347.9h-18.1V366h18.1V347.9z"/>
</g>
<g id="Capa_3">
</g>
<rect x="246.5" y="368" transform="matrix(0.7071 -0.7071 0.7071 0.7071 -192.1761 292.1057)" class="st0" width="20.1" height="20.1"/>
<rect x="240.3" y="357.5" transform="matrix(0.7071 -0.7071 0.7071 0.7071 -184.3127 279.1437)" class="st0" width="9" height="9"/>
<rect x="264.1" y="357.9" transform="matrix(0.7071 -0.7071 0.7071 0.7071 -177.6026 296.0686)" class="st0" width="9" height="9"/>
<path class="st0" d="M259.4,397.9l4.3,4.3l7.8-7.8l3.3,3.3l-7.8,7.8l4.3,4.3l7.8-7.8l3.3,3.3l-7.8,7.8l4.3,4.3l7.8-7.8l3.3,3.3
	l-10.6,10.6l-22.7-22.7l-22.7,22.7l-10.6-10.6l3.3-3.3l7.7,7.7l4.3-4.3l-7.7-7.7l3.3-3.3l7.7,7.7l4.3-4.3l-7.7-7.7l3.3-3.3l7.7,7.7
	l4.3-4.3l-11.9-11.9l-24.7,24.7c-1.2,1.2-1.2,3.3,0,4.5l39.6,39.6l39.7-39.7c1.2-1.2,1.2-3.3,0-4.5l-24.7-24.7L259.4,397.9z
	 M275,427.7l-18.5,18.5L238,427.7l18.5-18.5L275,427.7z"/>
<rect x="247.5" y="420.1" transform="matrix(0.7071 -0.7071 0.7071 0.7071 -228.3251 307.0804)" class="st0" width="18.1" height="18.1"/>
</svg>
