<?xml version="1.0" encoding="utf-8"?>
<!-- Generator: Adobe Illustrator 16.0.0, SVG Export Plug-In . SVG Version: 6.00 Build 0)  -->
<!DOCTYPE svg PUBLIC "-//W3C//DTD SVG 1.1//EN" "http://www.w3.org/Graphics/SVG/1.1/DTD/svg11.dtd">
<svg version="1.1" xmlns="http://www.w3.org/2000/svg" xmlns:xlink="http://www.w3.org/1999/xlink" x="0px" y="0px" width="512px"
	 height="512px" viewBox="0 0 512 512" enable-background="new 0 0 512 512" xml:space="preserve">
<g id="Capa_2">
	<g id="XMLID_1_">
		<g>
			<path d="M484.27,176.5H322.25c-14.63-0.02-26.49-11.87-26.5-26.5V83.75h114.34l24.72,21.19
				C457.23,124.1,474.27,148.76,484.27,176.5z"/>
			<rect x="295.75" y="17.5" width="106" height="39.75"/>
			<path fill="#5E5E5E" d="M345.16,339.99c0.399-0.12,0.75-0.29,1.09-0.49c-1.07,3.73-2.66,7.35-4.19,10.77
				c-2.979,6.671-6.09,13.28-8.939,20c-2.08,4.9-3.75,9.82-4.66,15.07c-0.9,5.25-0.65,10.51-1.15,15.771
				c-0.619,6.42-2.54,14.84-7.439,19.38c-2.08,1.92-5.03-0.851-6.5-2.19c-2.91-2.66-1.63-8.72-1.101-12.08
				c1.061-6.55,4.36-14.92,3.301-22.029c0.529-0.011,1.06-0.021,1.6-0.021c6.44-0.03,6.45-10.03,0-10
				c-2.51,0.01-5.01,0.07-7.51,0.14c-7.73-6.029-20.65-5.79-30.97-4.47c-2.49-5.21-3.421-11.29-5.87-16.53
				c-3.45-7.38-8.29-14.09-12.87-20.869c5.13-5.37,8.96-12.101,12.03-18.75c0.619-1.33,1.21-2.69,1.779-4.07
				c-0.97,4.93-2.109,9.81-2.26,14.88c-0.03,0.96,0.17,1.76,0.53,2.44c-1.2,4.989,1.149,10.39,3.13,14.869
				c1.6,3.62,3.59,7.15,5.85,10.46c-0.1,1.551,0.431,3.12,1.75,4.16c-0.92,4.601,6.25,8.011,9.391,3.261
				c0.13-0.19,0.26-0.381,0.399-0.57c0.51,0.09,1.021,0.18,1.54,0.25c1.55,2.36,5.11,3.71,7.95,1.33c0.22-0.19,0.44-0.38,0.67-0.58
				c10.6,0.37,21.5-1.21,31.12-4.13c3.84-1.16,5.31-7.19,1.189-9.141c-1.449-0.689-2.92-1.29-4.399-1.819
				c0.79-0.771,1.37-1.811,1.6-2.94C336.58,341.85,340.91,341.26,345.16,339.99z"/>
			<path d="M284.5,281.5c-3.2,0.21-4.82,2.82-4.82,5.33l-0.84,0.01c0-0.34,0-0.68-0.01-1.01c-0.09-3.49-3.271-5.38-6.09-4.79
				c-0.15-0.35-0.34-0.71-0.59-1.06c-5.73-8.181-9.591-17.36-13.381-26.57c2.391-1.16,3.931-3.91,2.051-6.77
				c-3.021-4.58-6.53-8.53-10.6-11.62c-0.11-0.1-0.23-0.18-0.35-0.26c-0.12-0.09-0.25-0.18-0.38-0.28c-0.51-0.62-1.2-1.11-2.06-1.39
				c-4.43-2.78-9.44-4.6-15.14-5.21c-11.92-1.27-23.91,1.58-35.79,2.29c-2.02,0.12-3.41,1.2-4.16,2.6
				c-0.81-0.07-1.62,0.07-2.35,0.49c-1.29-0.35-2.72-0.19-3.91,0.49c-2.7,1.52-3.89,4.4-5.43,6.99c-2.25,3.77-4.39,7.61-6.48,11.48
				c-3.99,7.41-7.52,15.07-10.49,22.95c-0.77,2.05-0.17,3.7,1.05,4.76c-0.35,1.471-0.55,2.94-0.63,4.391
				c-0.16,0.58-0.18,1.229-0.03,1.939c0.28,11.79,8.48,22.681,14.78,32.101c0.29,0.43,0.62,0.79,0.97,1.1
				c0.31,0.87,0.6,1.75,0.87,2.63c-7.63,11.28-12.49,23.97-17.84,36.55c-0.65,1.53-0.54,2.99,0.01,4.24
				c-2.22,3.29-4.28,6.68-5.56,10.51c-2.57,7.65,0.72,15.48,4.1,22.261c0.17,0.33,0.35,0.649,0.52,0.979
				c2.23,4.95,5.12,9.53,8.31,13.93c0.48,0.7,0.94,1.4,1.43,2.101c0.13,0.34,0.3,0.68,0.52,1.03
				c3.65,5.659,7.64,11.109,12.21,16.029c-0.38,1.84,0.18,3.84,2.25,5.101c5.36,3.25,11.83,3.37,17.94,2.75
				c4.97,0.76,10.03,0.83,15.3,0.29c10.04-1.021,19.82-3.561,29.95-3.69c2.26-0.03,4.2-1.51,4.82-3.67
				c1.51-5.17,3.19-10.28,5.041-15.33c6.97-10.03,13.71-20.229,20.729-30.229c8.32,0.189,16.64-0.2,24.96-0.5
				c0.101,0.26,0.17,0.52,0.21,0.81c0.49,4.38-1.14,9.18-2.03,13.42c-1.8,8.64-4.13,19.64,2.74,26.7
				c6.03,6.189,14.62,7.77,21.2,1.67c5.61-5.19,7.92-14.12,9.18-21.37c0.67-3.8,0.78-7.52,0.891-11.37
				c0.17-6.14,1.529-11.97,3.689-17.689c4.91-13.03,13.05-25.21,15.61-39.04c2.11-11.41-2.67-22.94-6.79-33.41
				c-2.46-6.24-5.46-12.36-10.21-17.19c-4.22-4.3-10.12-5.689-15.9-6.37C310.85,279.05,297.61,280.64,284.5,281.5z M491.53,203
				c5.93,31.41,2.93,63.85-8.65,93.65L405.93,494.5H106.07L29.12,296.64C17.54,266.85,14.54,234.41,20.47,203h27.06
				c-6.31,28.02-4.12,57.28,6.29,84.04l25.87,66.51l24.7-9.6L78.52,277.43c-8.87-22.8-10.42-47.8-4.45-71.53
				c0.24-0.97,0.53-1.93,0.8-2.9h114.88c29.26-0.03,52.97-23.74,53-53V83.75h26.5V150c0.03,29.26,23.74,52.97,53,53H491.53z"/>
			<path fill="#5E5E5E" d="M279.68,286.83c0,2.49,1.61,4.88,4.82,4.67c9.48-0.62,18.92-1.52,28.43-1.52
				c4.66-0.011,9.351,0.189,13.91,1.17c4.49,0.97,7.101,3.64,9.521,7.449c2.819,4.45,4.64,9.48,6.37,14.42
				c1.06,3.03,2.279,6.181,3.22,9.37c-0.04-0.02-0.08-0.029-0.12-0.04c-0.84-0.199-1.68-0.369-2.53-0.52
				c1.69-2.811,0.25-7.19-4.13-7.66c-3.46-0.38-6.92-0.52-10.39-0.56c0.08-1.841-0.88-3.73-2.561-4.761
				c-1.85-6.359-9.79-8.18-15.77-8.39c-6.92-0.24-15.26,2.63-21.95,0.55c-1.54-0.47-2.86-0.229-3.87,0.42
				c-0.17-0.27-0.33-0.54-0.479-0.79c-1.74-2.899-4.761-3-6.9-1.51c1.01-4.04,1.61-8.17,1.59-12.29L279.68,286.83z"/>
			<rect x="242.75" y="17.5" width="26.5" height="39.75"/>
			<path fill="#5E5E5E" d="M232.64,270.63c0.6,1.63,1.26,3.23,2.01,4.78c-2.21,3.54-4.04,7.28-5.95,11.02
				c-1.01,1.561-1.88,3.25-2.63,5.09c-3.65,0.04-7.27,0.211-10.9,0.83c-1.45,0.24-2.42,0.94-2.99,1.851
				c-1.23-3.54-2.87-6.94-4.7-10.22c-0.01-0.03-0.03-0.051-0.04-0.07c-0.58-2.891-1.03-5.811-1.45-8.74
				c-0.04-0.27-0.12-0.53-0.22-0.78c0.46-1.699,0.99-3.42,1.7-5.029c0.29-0.641,0.62-1.261,0.98-1.87c0.22-0.38,0.44-0.62,0.61-0.76
				c2.45,0.189,5.01,1.229,7.44,1.439c3.23,0.28,9.39-3.29,11.68,0.19C229.33,270.09,231.01,270.73,232.64,270.63z"/>
			<path fill="#5E5E5E" d="M229.37,382.31c-0.42,0.16-0.84,0.33-1.25,0.521c-0.09,0-0.19,0-0.29,0c-0.28,0-0.55,0.03-0.81,0.07
				c-0.04,0-0.07,0.01-0.11,0.01c-1.91,0.32-3.12,1.609-3.63,3.16c-0.88,0.81-1.7,1.71-2.46,2.72c-0.76,1.02-1.43,2.1-2.04,3.21
				c-2.76-0.99-5.49-1.71-7.62-2.32c-0.63-0.18-1.22-0.239-1.76-0.199c-1.47-2.53-3.02-5.011-4.58-7.5
				c-0.56-0.891-1.26-1.5-2.02-1.87c0.01-0.091,0.03-0.181,0.03-0.28c0.01-0.53,0.05-1.07,0.11-1.6c0.01-0.141,0.03-0.24,0.04-0.311
				c0.02-0.18,0.05-0.35,0.07-0.53c0.12-0.81,0.23-1.62,0.32-2.43c0.11-0.05,0.21-0.09,0.32-0.14c4.5-2.261,8.94-4.66,13.5-6.79
				c1.05-0.05,2.09-0.42,2.95-1.03c1.35,0.31,2.63,0.56,3.75,0.77c0.81,0.16,1.66,0.301,2.51,0.421c-0.13,0.76-0.16,1.55-0.05,2.31
				C226.9,374.59,227.81,378.57,229.37,382.31z"/>
			<path fill="#5E5E5E" d="M225.57,248.08c3.04,0,6.09-2.81,5.16-6.12c4.2,0.34,8.41,0.68,12.64,0.81
				c6.2,12.93,10.41,26.93,18.07,39.1c-8.311,10.05-13.75,21.71-19.26,33.439c-0.04,0.091-0.07,0.181-0.11,0.271
				c-1.81-0.44-3.88-0.26-5.65-0.25c-4.86,0.02-9.71,0.189-14.57,0.36c-2.08,0.069-4.18,0.13-6.29,0.199l-0.09-2.989
				c2.07-0.07,4.14-0.351,5.98-0.7c2.49,0.189,6,0.18,7.75-1.79c0.7-0.8,1.14-1.601,1.37-2.4c1.68-0.79,3.23-1.85,4.67-3.18
				c0.11-0.1,0.21-0.21,0.32-0.311c1.68,0.69,3.66,0.5,5.14-1.149c2.93-3.26,4.39-6.84,5.95-10.87c0.54-1.39,0.15-2.93-0.72-4.16
				c0.24-0.81,0.49-1.63,0.71-2.45c3.7,0.28,7.51-3.37,4.84-7.25c-3.32-4.72-6.54-9.489-10.13-14.01c-0.16-0.28-0.31-0.55-0.47-0.83
				c3.35-2.46,1.99-7.41-1.72-8.79c-3.01-1.11-6.39-1.41-9.7-1.52c-0.66-1.6-2.02-2.82-3.87-2.82L225.57,248.08z"/>
			<path fill="#5E5E5E" d="M225.57,248.08l0.02,2.59c-0.54,0-1.13,0.11-1.75,0.34c-5.38,2-11.12,2.03-16.61,3
				c-1.71-2.79-5.91-3.74-8.38-0.03c-1.33,2-2.67,4-4,6c-0.55,0.829-0.75,1.729-0.69,2.619c-2.69,3.58-4.66,7.95-6.48,12.57
				c-0.3,0.771-0.37,1.5-0.25,2.18c-0.17,0.391-0.31,0.771-0.42,1.15c-0.34,1.23-0.14,2.6,0.13,3.97c-2.44,0.79-4.44,3.16-3.46,6.03
				c0.11,0.33,0.24,0.66,0.37,0.98c-2.75,0.46-5.26,3.319-4.37,6.35c0.14,0.46,0.29,0.92,0.44,1.39
				c-2.06-3.88-4.06-7.779-5.76-11.84c0.01-1.149,0.11-2.3,0.32-3.47c0.55-0.37,1.05-0.88,1.47-1.55c3.5-5.53,5.96-11.79,8.74-17.83
				c0.41-0.65,0.8-1.28,1.18-1.92c2.02-3.46,3.97-6.97,5.85-10.51c0.91-1.22,1.88-2.4,2.95-3.51c0.12-0.13,0.25-0.24,0.38-0.36
				c0.4-0.03,0.81-0.11,1.25-0.24c4.1-1.29,8.42-1.75,12.7-2c2.54-0.15,10.7-0.98,12.32,1.7
				C222.54,247.38,224.05,248.08,225.57,248.08z"/>
			<path d="M216.25,83.75V150c-0.02,14.63-11.87,26.48-26.5,26.5H85.91c2.51-4.48,5.32-8.79,8.41-12.9l-21.14-15.97
				c-6.28,8.32-11.64,17.3-15.99,26.77c-0.32,0.69-0.6,1.4-0.91,2.1c-9.48,0-19.08-0.33-28.53,0.1
				c9.3-27.49,27.51-52.86,49.44-71.66l28.44-24.38c2.93-2.51,4.62-6.19,4.62-10.06v-53h106v39.75h-79.5v26.5H216.25z
				 M125.23,133.56l-17.24-20.12l-13.57,11.63c-2.27,1.95-4.5,3.98-6.64,6.05l18.44,19.03c1.75-1.69,3.58-3.36,5.44-4.95
				L125.23,133.56z"/>
			<path fill="#5E5E5E" d="M215.47,312.9l0.09,2.989c-7.65,0.221-15.4,0.511-22.91,1.771c-0.81-1.641-2.37-2.87-4.03-3.04
				c-1-2.59-2.13-5.12-3.36-7.601c1.02,0.37,2.15,0.41,3.21,0.141c1.18,1.26,2.43,2.46,3.83,3.54c3.23,2.5,7.85,1.29,8.46-2.891
				c0.93,2.091,3.11,3.61,5.59,2.921C208.65,312.51,212.05,313,215.47,312.9z"/>
			<path fill="#5E5E5E" d="M199.16,422.35c-2.34-0.52-4.18,0.5-5.24,2.051c-0.01-0.011-0.02,0-0.04,0c-0.17-0.2-0.34-0.4-0.51-0.601
				c0.03-0.79-0.13-1.63-0.55-2.49c-3.74-7.6-8.92-14.3-13.51-21.38c-4.21-6.489-8.06-13.67-6.68-21.609
				c2.55-14.62,15.1-27.16,25.41-36.95c1.44-1.37,1.76-2.99,1.38-4.45c6.86,0.08,13.69-0.26,20.67-0.18
				c8.65,0.08,17.76,1.24,26.24-0.96c5.21,8.85,8.27,18.76,12,28.34c-0.55,1.24-0.51,2.72,0.52,4.24
				c1.96,2.899,4.83,5.909,6.141,9.199c0.12,0.28,0.189,0.57,0.25,0.86c-3.771,7.11-7.24,14.39-10.37,21.811
				c-1.24,0.189-2.45,0.93-3.35,2.409c-2.19,3.58-4.49,7.091-6.67,10.67c-0.64,1.061-0.85,2.101-0.73,3.051
				c-0.38,0.399-0.75,0.81-1.17,1.18c-3.79,3.34-10.2,3.78-14.91,4.979c-3.95,0.99-7.89,2.011-11.85,2.921
				c-0.62-0.08-1.24-0.171-1.85-0.261C209.25,424.45,204.19,423.45,199.16,422.35z M251.44,373.91c2.66-1.95,2.86-6.79-0.42-8.391
				c-1.74-0.859-3.51-1.449-5.3-1.829c0.11-0.11,0.22-0.21,0.32-0.32c2.75-3.14,1.07-8.63-3.54-8.54c-2.67,0.06-5.48,0.41-8.3,0.71
				c-4.89-5.23-12-5.86-18.76-3.271c-0.24-0.52-0.55-1.01-0.94-1.439c-2.29-2.6-6.58-2.96-9.81-2.36
				c-13.37,2.49-14.35,19.21-21.73,27.83c-2.23,2.62-1.2,7.2,1.68,8.391c0.09,0.119,0.18,0.25,0.28,0.359
				c0.13,6.3,4.38,12.74,8.09,17.41c5.66,7.12,12.14,10.36,21.06,10.9c4.57,0.27,10.65-0.221,14.16-3.021
				c11.79-3.3,16.11-21.39,23.14-29.64C253.32,378.42,252.96,375.65,251.44,373.91z"/>
		</g>
		<g>
		</g>
	</g>
</g>
<g id="Capa_3">
	<g>
		<path d="M186.405,322.246c0.919,1.869,2.815,3.061,4.899,3.074l53.612,0.385l22.309-43.823l-20.178-41.46
			c-0.915-1.869-2.812-3.06-4.894-3.073l-50.216-0.361c-2.083-0.015-3.995,1.148-4.941,3.004l-19.52,38.714
			c-0.786,1.542-0.799,3.365-0.037,4.918L186.405,322.246z M186.563,278.845l11.157-22.282c0.946-1.855,2.855-3.019,4.939-3.004
			l28.534,0.206c2.083,0.015,3.976,1.206,4.896,3.074l10.836,22.438c0.76,1.55,0.748,3.376-0.036,4.919l-11.153,21.912
			c-0.947,1.856-2.857,3.019-4.94,3.002l-28.536-0.203c-2.082-0.018-3.974-1.204-4.894-3.075l-10.839-22.069
			C185.766,282.208,185.777,280.382,186.563,278.845z"/>
		<path d="M185.693,421.576c0.918,1.868,2.814,3.059,4.898,3.071l50.215,0.363c2.081,0.014,3.993-1.147,4.937-3.003l20.769-41.165
			l-21.676-44.142l-53.612-0.384c-2.083-0.016-3.997,1.147-4.939,3.004l-19.519,38.347c-0.786,1.542-0.799,3.364-0.035,4.918
			L185.693,421.576z M185.852,377.804l11.153-21.911c0.949-1.856,2.857-3.019,4.939-3.004l28.536,0.206
			c2.083,0.014,3.975,1.203,4.896,3.071l10.838,22.071c0.763,1.552,0.75,3.378-0.036,4.92l-11.157,22.278
			c-0.946,1.855-2.855,3.017-4.939,3.003l-28.534-0.204c-2.083-0.017-3.976-1.205-4.895-3.074l-10.835-22.436
			C185.055,381.172,185.068,379.346,185.852,377.804L185.852,377.804z"/>
		<path d="M206.361,262.318l-8.366,16.437l8.128,16.553l21.002,0.149l8.369-16.435l-8.131-16.554L206.361,262.318z"/>
		<path d="M205.256,364.094l-8.365,16.437l8.128,16.553l21.002,0.15l8.369-16.436l-8.131-16.554L205.256,364.094z"/>
		<path d="M334.657,290.899c-0.918-1.867-2.815-3.06-4.896-3.073l-53.033-0.38l-22.307,43.824l21.677,44.143l28.291,0.204
			c3.038,0.022,5.479,2.497,5.456,5.536l-0.238,33.354c4.575,2.124,5.184,13.076,10.916,11.073
			c6.975-2.432,7.904-8.848,11.077-10.917l0.278-38.85l21.71-41.373c0.794-1.517,0.82-3.319,0.062-4.855L334.657,290.899z
			 M334.503,334.304l-11.154,21.914c-0.946,1.857-2.858,3.021-4.939,3.003l-27.804-0.197c-2.084-0.017-3.976-1.209-4.897-3.077
			l-10.836-22.069c-0.761-1.553-0.749-3.374,0.034-4.917l11.153-21.913c0.945-1.854,2.858-3.02,4.941-3.004l27.803,0.199
			c2.082,0.016,3.976,1.205,4.896,3.073l10.837,22.071C335.297,330.943,335.286,332.763,334.503,334.304z"/>
	</g>
	<rect x="303.192" y="313.584" transform="matrix(0.7121 -0.7021 0.7021 0.7121 -134.9222 308.0644)" width="9.9" height="9.901"/>
	<rect x="300.198" y="308.39" transform="matrix(0.7121 -0.702 0.702 0.7121 -131.0092 301.7344)" width="4.455" height="4.455"/>
	
		<rect x="311.918" y="308.648" transform="matrix(0.7116 -0.7026 0.7026 0.7116 -127.8173 310.3807)" width="4.456" height="4.457"/>
	<g>
		<defs>
			
				<rect id="SVGID_1_" x="282.328" y="306.215" transform="matrix(-1 -0.0072 0.0072 -1 613.669 666.0345)" width="51.404" height="51.401"/>
		</defs>
		<clipPath id="SVGID_2_">
			<use xlink:href="#SVGID_1_"  overflow="visible"/>
		</clipPath>
		<path clip-path="url(#SVGID_2_)" d="M309.473,328.343l2.083,2.117l3.878-3.824l1.623,1.646l-3.878,3.821l2.086,2.117l3.876-3.821
			l1.62,1.642l-3.878,3.822l2.084,2.114l3.88-3.823l1.623,1.648l-5.29,5.211l-11.117-11.279l-11.288,11.124l-5.212-5.287
			l1.643-1.618l3.746,3.798l2.114-2.084l-3.746-3.798l1.647-1.623l3.744,3.798l2.117-2.082l-3.748-3.8l1.647-1.626l3.746,3.801
			l2.115-2.085l-5.831-5.915l-12.281,12.106c-0.613,0.606-0.622,1.598-0.016,2.213l19.403,19.683l19.688-19.407
			c0.617-0.61,0.623-1.6,0.018-2.215l-12.104-12.28L309.473,328.343z M317.065,343.1l-9.171,9.042l-9.036-9.166l9.174-9.042
			L317.065,343.1z"/>
		
			<rect x="303.507" y="339.28" transform="matrix(-0.7019 -0.7122 0.7122 -0.7019 279.3107 804.3559)" clip-path="url(#SVGID_2_)" width="8.91" height="8.907"/>
	</g>
</g>
</svg>
