<?xml version="1.0" encoding="utf-8"?>
<!-- Generator: Adobe Illustrator 24.0.0, SVG Export Plug-In . SVG Version: 6.00 Build 0)  -->
<svg version="1.1" id="Capa_1" xmlns="http://www.w3.org/2000/svg" xmlns:xlink="http://www.w3.org/1999/xlink" x="0px" y="0px"
	 viewBox="0 0 512 512" style="enable-background:new 0 0 512 512;" xml:space="preserve">
<style type="text/css">
	.st0{clip-path:url(#SVGID_2_);fill:#FFFFFF;}
	.st1{clip-path:url(#SVGID_4_);fill:#FFFFFF;}
	.st2{clip-path:url(#SVGID_6_);fill:#FFFFFF;}
	.st3{clip-path:url(#SVGID_8_);}
	.st4{clip-path:url(#SVGID_10_);fill:#FFFFFF;}
	.st5{clip-path:url(#SVGID_12_);fill:#FFFFFF;}
</style>
<g id="Capa_3">
	<g>
		<g>
			<path d="M177.6,250.6c0.3-5.5,0.7-10.9,1.4-16.5c1.3-13.1,4.2-26.3,7.1-39.1c1.8-6.4,3.7-12.7,5.7-18.9c2.6-6,5.1-12,7.6-17.9
				c5.7-11.4,12.1-22.1,19.6-31c1.8-2.3,3.6-4.5,5.3-6.8c2-2,4-3.9,5.9-5.9c4.1-3.7,7.6-7.7,11.7-10.6c8.1-6,15.3-11.7,22.5-15.2
				c7-3.9,13.1-7.3,18.5-9.2c10.6-4.3,16.7-6.4,16.7-6.4s-5.2,4.1-14.2,10.7c-4.7,3-9.6,7.8-15.5,12.7c-6.1,4.7-11.7,11.4-18.3,17.8
				c-3.3,3.3-5.9,7.4-9,11.2c-1.5,1.9-3.1,3.9-4.7,5.9c-1.3,2.2-2.6,4.4-4,6.6c-5.8,8.6-10.2,18.7-14.7,29
				c-1.9,5.4-3.7,10.8-5.7,16.3c-1.3,5.7-2.8,11.5-4.3,17.3c-2.4,11.8-4.7,23.9-5.7,36.3c-0.7,4.5-1,9-1.5,13.6
				c98.7,0,175.1,0.1,281.9,0.1c0.4-4.7,0.6-9.4,0.6-14.2c0-90-65.6-164.1-150-174c5.4-5.1,8.9-12.3,8.9-20.4
				c0-15.5-12.5-28-27.9-28c-15.4,0-28,12.5-28,28c0,8.1,3.4,15.3,8.9,20.4c-84.4,9.8-150,84-150,174c0,4.8,0.2,9.4,0.5,14.1
				C157.7,250.6,167.7,250.6,177.6,250.6z"/>
			<rect x="116" y="261.1" width="399.6" height="35.3"/>
			<path d="M351.5,321.3c-20.3,9.9-91.1,35.4-91.1,35.4l-83.7-5.2c0,0,47.9-13.3,66.4-17.5c18.6-4.2,10.5-25.1,0.2-25.1
				c-10.3,0-99.9,3.7-99.9,3.7L84,334l15.7,99.7c0,0,12.2-21,24.5-21c12.3,0,118.5,2.8,132.9,0c14.4-2.9,102.3-63,112.8-70
				C380.4,335.8,371.9,311.5,351.5,321.3z"/>
			<polygon points="4,344.7 4,473.9 95.1,456.9 72.3,332.7 			"/>
		</g>
	</g>
</g>
<g id="Capa_2_1_">
	<g>
		<g>
			<g>
				<defs>
					
						<rect id="SVGID_1_" x="295.2" y="119.2" transform="matrix(0.7071 -0.7071 0.7071 0.7071 -18.7387 294.0617)" width="100.8" height="100.8"/>
				</defs>
				<clipPath id="SVGID_2_">
					<use xlink:href="#SVGID_1_"  style="overflow:visible;"/>
				</clipPath>
				
					<rect x="317.3" y="141.4" transform="matrix(0.7071 -0.7071 0.7071 0.7071 -11.0269 275.5088)" class="st0" width="19.4" height="19.4"/>
			</g>
			<g>
				<defs>
					
						<rect id="SVGID_3_" x="302.8" y="106.7" transform="matrix(0.7071 -0.7071 0.7071 0.7071 -7.6431 295.7642)" width="100.8" height="100.8"/>
				</defs>
				<clipPath id="SVGID_4_">
					<use xlink:href="#SVGID_3_"  style="overflow:visible;"/>
				</clipPath>
				
					<rect x="311.4" y="131.2" transform="matrix(0.7071 -0.7071 0.7071 0.7071 -3.4173 262.9683)" class="st1" width="8.7" height="8.7"/>
			</g>
			<g>
				<defs>
					
						<rect id="SVGID_5_" x="309.3" y="123.1" transform="matrix(0.7071 -0.7072 0.7072 0.7071 -17.2978 305.2019)" width="100.8" height="100.8"/>
				</defs>
				<clipPath id="SVGID_6_">
					<use xlink:href="#SVGID_5_"  style="overflow:visible;"/>
				</clipPath>
				
					<rect x="334.4" y="131.6" transform="matrix(0.7071 -0.7072 0.7072 0.7071 3.0926 279.3797)" class="st2" width="8.7" height="8.7"/>
			</g>
			<g>
				<defs>
					<rect id="SVGID_7_" x="276.6" y="126.9" width="100.8" height="100.8"/>
				</defs>
				<clipPath id="SVGID_8_">
					<use xlink:href="#SVGID_7_"  style="overflow:visible;"/>
				</clipPath>
				<g class="st3">
					<g>
						<defs>
							<rect id="SVGID_9_" x="276.6" y="126.9" width="100.8" height="100.8"/>
						</defs>
						<clipPath id="SVGID_10_">
							<use xlink:href="#SVGID_9_"  style="overflow:visible;"/>
						</clipPath>
						<path class="st4" d="M329.8,170.3l4.1,4.1l7.6-7.6l3.2,3.2l-7.6,7.6l4.1,4.1l7.6-7.6l3.2,3.2l-7.6,7.6l4.1,4.1l7.6-7.6
							l3.2,3.2L349,195l-22-22l-22,22l-10.3-10.3l3.2-3.2l7.4,7.4l4.1-4.1l-7.4-7.4l3.2-3.2l7.4,7.4l4.1-4.1l-7.4-7.4l3.2-3.2
							l7.4,7.4l4.1-4.1l-11.5-11.5l-23.9,23.9c-1.2,1.2-1.2,3.1,0,4.3l38.3,38.3l38.4-38.4c1.2-1.2,1.2-3.1,0-4.3l-23.9-23.9
							L329.8,170.3z M344.9,199.1L327,217l-17.9-17.9l17.9-17.9L344.9,199.1z"/>
					</g>
					<g>
						<defs>
							
								<rect id="SVGID_11_" x="260.3" y="166.5" transform="matrix(0.7071 -0.7071 0.7071 0.7071 -62.3857 283.2314)" width="100.8" height="100.8"/>
						</defs>
						<clipPath id="SVGID_12_">
							<use xlink:href="#SVGID_11_"  style="overflow:visible;"/>
						</clipPath>
						
							<rect x="318.3" y="191.8" transform="matrix(0.7071 -0.7071 0.7071 0.7071 -45.9838 289.9992)" class="st5" width="17.5" height="17.5"/>
					</g>
				</g>
			</g>
		</g>
	</g>
</g>
</svg>
