<?xml version="1.0" encoding="utf-8"?>
<!-- Generator: Adobe Illustrator 24.0.0, SVG Export Plug-In . SVG Version: 6.00 Build 0)  -->
<svg version="1.1" id="Capa_1" xmlns="http://www.w3.org/2000/svg" xmlns:xlink="http://www.w3.org/1999/xlink" x="0px" y="0px"
	 viewBox="0 0 512 512" style="enable-background:new 0 0 512 512;" xml:space="preserve">
<style type="text/css">
	.st0{clip-path:url(#SVGID_2_);fill:#FFFFFF;}
	.st1{clip-path:url(#SVGID_4_);fill:#FFFFFF;}
	.st2{clip-path:url(#SVGID_6_);fill:#FFFFFF;}
	.st3{clip-path:url(#SVGID_8_);}
	.st4{clip-path:url(#SVGID_10_);fill:#FFFFFF;}
	.st5{clip-path:url(#SVGID_12_);fill:#FFFFFF;}
</style>
<g id="Capa_2_1_">
	<path id="Shape" d="M272.8,287.4H40.6c2.3,13.4,13.9,23.3,27.5,23.3h177.1C258.8,310.7,270.5,300.9,272.8,287.4z"/>
	<path id="Shape_3_" d="M240.6,68.4v-4.7c0-7.7-6.3-14-14-14H86.8c-7.7,0-14,6.3-14,14v4.7H240.6z"/>
	<path id="Shape_4_" d="M245.2,96.4c-11.1,0-20.6-7.8-22.8-18.6H91c-2.2,10.8-11.8,18.6-22.8,18.6c-13.6,0-25.3,9.9-27.5,23.3h232.1
		C270.5,106.3,258.8,96.4,245.2,96.4L245.2,96.4z"/>
	<path d="M40.2,129v149.1h233V129H40.2z M58.8,264.1c0,2.6-2.1,4.7-4.7,4.7c-2.6,0-4.7-2.1-4.7-4.7v-97.9c0-2.6,2.1-4.7,4.7-4.7
		s4.7,2.1,4.7,4.7V264.1z M58.8,147.7c0,2.6-2.1,4.7-4.7,4.7c-2.6,0-4.7-2.1-4.7-4.7V143c0-2.6,2.1-4.7,4.7-4.7s4.7,2.1,4.7,4.7
		V147.7z"/>
	<g>
		<g>
			<g>
				<defs>
					
						<rect id="SVGID_1_" x="123.7" y="144.7" transform="matrix(0.7071 -0.7071 0.7071 0.7071 -86.9993 180.2708)" width="100.8" height="100.8"/>
				</defs>
				<clipPath id="SVGID_2_">
					<use xlink:href="#SVGID_1_"  style="overflow:visible;"/>
				</clipPath>
				
					<rect x="145.9" y="166.9" transform="matrix(0.7071 -0.7071 0.7071 0.7071 -79.2872 161.7172)" class="st0" width="19.4" height="19.4"/>
			</g>
			<g>
				<defs>
					
						<rect id="SVGID_3_" x="131.3" y="132.2" transform="matrix(0.7071 -0.7071 0.7071 0.7071 -75.9075 181.9773)" width="100.8" height="100.8"/>
				</defs>
				<clipPath id="SVGID_4_">
					<use xlink:href="#SVGID_3_"  style="overflow:visible;"/>
				</clipPath>
				
					<rect x="139.9" y="156.7" transform="matrix(0.7071 -0.7071 0.7071 0.7071 -71.6818 149.1817)" class="st1" width="8.7" height="8.7"/>
			</g>
			<g>
				<defs>
					
						<rect id="SVGID_5_" x="137.8" y="148.6" transform="matrix(0.7071 -0.7071 0.7071 0.7071 -85.5772 191.3625)" width="100.8" height="100.8"/>
				</defs>
				<clipPath id="SVGID_6_">
					<use xlink:href="#SVGID_5_"  style="overflow:visible;"/>
				</clipPath>
				
					<rect x="162.9" y="157.1" transform="matrix(0.7071 -0.7071 0.7071 0.7071 -65.188 165.5463)" class="st2" width="8.7" height="8.7"/>
			</g>
			<g>
				<defs>
					<rect id="SVGID_7_" x="105.1" y="152.4" width="100.8" height="100.8"/>
				</defs>
				<clipPath id="SVGID_8_">
					<use xlink:href="#SVGID_7_"  style="overflow:visible;"/>
				</clipPath>
				<g class="st3">
					<g>
						<defs>
							<rect id="SVGID_9_" x="105.1" y="152.4" width="100.8" height="100.8"/>
						</defs>
						<clipPath id="SVGID_10_">
							<use xlink:href="#SVGID_9_"  style="overflow:visible;"/>
						</clipPath>
						<path class="st4" d="M158.3,195.8l4.1,4.1l7.6-7.6l3.2,3.2l-7.6,7.6l4.1,4.1l7.6-7.6l3.2,3.2l-7.6,7.6l4.1,4.1l7.6-7.6
							l3.2,3.2l-10.3,10.3l-22-22l-22,22l-10.3-10.3l3.2-3.2l7.4,7.4l4.1-4.1l-7.4-7.4l3.2-3.2l7.4,7.4l4.1-4.1l-7.4-7.4l3.2-3.2
							l7.4,7.4l4.1-4.1l-11.5-11.5l-23.9,23.9c-1.2,1.2-1.2,3.1,0,4.3l38.3,38.3l38.4-38.4c1.2-1.2,1.2-3.1,0-4.3L170,184.1
							L158.3,195.8z M173.4,224.6l-17.9,17.9l-17.9-17.9l17.9-17.9L173.4,224.6z"/>
					</g>
					<g>
						<defs>
							
								<rect id="SVGID_11_" x="88.8" y="192" transform="matrix(0.7071 -0.7071 0.7071 0.7071 -130.6481 169.4276)" width="100.8" height="100.8"/>
						</defs>
						<clipPath id="SVGID_12_">
							<use xlink:href="#SVGID_11_"  style="overflow:visible;"/>
						</clipPath>
						
							<rect x="146.8" y="217.3" transform="matrix(0.7071 -0.7071 0.7071 0.7071 -114.2455 176.1948)" class="st5" width="17.5" height="17.5"/>
					</g>
				</g>
			</g>
		</g>
	</g>
	<g>
		<path d="M151.5,323.3c-25,0-45.2,20.2-45.2,45.1c0,25,20.2,45.2,45.2,45.2c24.9,0,45.1-20.2,45.1-45.2
			C196.6,343.5,176.4,323.3,151.5,323.3z M151.5,391c-12.5,0-22.6-10.2-22.6-22.6c0-12.4,10.2-22.6,22.6-22.6
			c12.4,0,22.6,10.2,22.6,22.6C174,380.9,163.9,391,151.5,391z M112.6,323.3H11.4c-4,0-7.3,3.2-7.3,7.3v22c0,4,3.2,7.3,7.3,7.3h81.1
			C94.6,345.3,101.9,332.5,112.6,323.3z M387.6,323.3c-24.9,0-45.1,20.2-45.1,45.1c0,25,20.2,45.2,45.1,45.2
			c25,0,45.1-20.2,45.1-45.2C432.7,343.5,412.5,323.3,387.6,323.3z M387.6,391c-12.5,0-22.6-10.2-22.6-22.6
			c0-12.4,10.1-22.6,22.6-22.6s22.6,10.2,22.6,22.6C410.1,380.9,400.1,391,387.6,391z M505.2,323.3h-17.6v-98.6
			c0-11.5-3.5-22.9-9.9-32.4l-44.2-65.4c-10.7-16-28.8-25.5-48.1-25.5h-68.5c-8,0-14.5,6.5-14.5,14.5v207.5H190.4
			c10.6,9.2,17.9,22,20,36.6h118.3c4.1-28.8,28.9-51.1,58.9-51.1c30,0,54.8,22.3,59,51.1h58.7c4.1,0,7.3-3.3,7.3-7.3v-22.1
			C512.5,326.5,509.3,323.3,505.2,323.3z M433,205.3h-90.4c-4,0-7.3-3.2-7.3-7.3V148c0-4,3.3-7.3,7.3-7.3h55.1c2.4,0,4.6,1.2,5.9,3
			l35.3,50.2C442.4,198.7,438.9,205.3,433,205.3z"/>
	</g>
</g>
<g id="Capa_3">
</g>
</svg>
