<?xml version="1.0" encoding="utf-8"?>
<!-- Generator: Adobe Illustrator 16.0.0, SVG Export Plug-In . SVG Version: 6.00 Build 0)  -->
<!DOCTYPE svg PUBLIC "-//W3C//DTD SVG 1.1//EN" "http://www.w3.org/Graphics/SVG/1.1/DTD/svg11.dtd">
<svg version="1.1" id="Capa_2" xmlns="http://www.w3.org/2000/svg" xmlns:xlink="http://www.w3.org/1999/xlink" x="0px" y="0px"
	 width="512px" height="512px" viewBox="0 0 512 512" enable-background="new 0 0 512 512" xml:space="preserve">
<g>
	<path fill="#030104" d="M470.022,212.125c0-4.417-1.691-8.834-5.056-12.198l-35.699-35.699c-0.542,0.403-1.081,0.81-1.624,1.209
		c-7.913,5.817-16.05,11.559-24.62,16.38c-0.691,0.389-1.373,0.594-2.028,0.658c-0.284,0.494-0.627,0.913-1.013,1.263l28.388,28.387
		l-86.271,86.271h-17.843c0.384,1.435,0.016,3.016-1.554,4.306c-15.986,13.148-27.474,31.192-43.732,43.981
		c2.333,0.191,4.527,1.797,4.53,4.816c0.02,16.924,0.579,33.862,0.043,50.783c-0.116,3.675-0.264,7.336-0.512,10.985
		c0.344,3.296,0.71,6.59,1.076,9.886c1.855,16.68,3.441,32.666-0.251,49.212c-0.175,0.781-0.362,1.561-0.544,2.341
		c1.981,10.119,2.887,20.397,3.17,30.742h62.761c4.59,0,8.972-1.811,12.196-5.056l103.527-103.525
		c3.245-3.229,5.056-7.608,5.056-12.2V217.941c0-1.14-0.275-2.209-0.5-3.296C469.659,213.8,470.022,212.988,470.022,212.125z"/>
	<path fill="#030104" d="M263.933,451.647c0.466-16.709,0.332-33.321,0.129-50.032c-0.191-15.7,0.103-31.371,2.541-46.909
		c-1.097,0.563-2.204,1.107-3.334,1.613c-7.702,7.084-24.38,6.416-32.945,6.133c-8.306-0.275-16.753-1.073-24.85-3.017
		c-5.391-1.293-12.058-3.011-15.842-7.4c-0.15-0.175-0.283-0.353-0.405-0.532c-0.02-0.001-0.04-0.003-0.06-0.003
		c-6.138-0.121-6.432-9.204-0.86-9.946c0.593-2.33,1.424-4.515,2.42-6.6c0.043-0.104,0.077-0.205,0.123-0.311
		c0.102-0.232,0.215-0.442,0.334-0.641c3.612-7.077,9.211-12.952,14.643-18.969c3.425-5.424,7.101-10.724,9.603-16.638h-66.078
		L63.08,212.125l86.271-86.271h192.748l5.164,5.164c1.623-1.064,3.117-2.045,4.304-2.942c4.168-3.153,6.977-7.742,10.323-11.681
		c3.096-3.643,6.624-6.551,10.717-8.826l-11.167-11.167c-3.225-3.244-7.606-5.056-12.196-5.056H142.208
		c-4.572,0-8.972,1.812-12.198,5.056L26.466,199.928c-3.244,3.226-5.056,7.626-5.056,12.198c0,0.863,0.362,1.656,0.5,2.503
		c-0.225,1.087-0.5,2.173-0.5,3.313v166.727c0,4.592,1.812,8.972,5.056,12.2l103.543,103.525c3.226,3.245,7.626,5.056,12.198,5.056
		h121.52C263.106,487.536,263.433,469.574,263.933,451.647z"/>
	<path fill="#030104" d="M227.801,298.396c0.237,1.017,0.178,2.14-0.317,3.294c-2.878,6.709-7.748,12.3-12.763,17.778
		c-0.839,1.377-1.668,2.763-2.464,4.18c-3.498,6.229-6.604,12.74-9.629,19.252c3.721,0.999,7.415,2.195,11.111,3.376
		c5.561,0.342,11.181,0.184,16.762-0.109c2.371-0.125,3.862,1.15,4.485,2.828c1.19,0.005,2.377,0,3.501-0.06
		c0.894-0.16,1.789-0.35,2.684-0.59c0.705-0.189,1.36-0.225,1.965-0.151c2.27-0.421,3.989,0.747,4.871,2.424
		c3.161-0.59,6.243-1.494,9.233-2.658c1.14-2.526,3.731-3.279,5.952-2.746c2.212-1.184,4.364-2.503,6.432-3.983
		c16.533-11.84,27.743-29.362,42.795-42.834H227.801z"/>
</g>
<g>
	<path d="M216.173,167.208c-0.954,1.626-0.908,3.652,0.12,5.233l26.441,40.688l44.226-5.001l21.255-35.914
		c0.955-1.625,0.909-3.65-0.119-5.229l-24.767-38.111c-1.027-1.581-2.859-2.445-4.732-2.234l-38.977,4.561
		c-1.556,0.176-2.939,1.074-3.732,2.425L216.173,167.208z M249.034,145.686l22.394-2.683c1.873-0.209,3.704,0.652,4.732,2.233
		l14.072,21.655c1.028,1.581,1.071,3.604,0.119,5.232l-11.545,19.373c-0.792,1.348-2.177,2.249-3.732,2.426l-22.113,2.501
		c-1.875,0.211-3.704-0.653-4.731-2.234l-14.074-21.656c-1.026-1.581-1.073-3.602-0.12-5.229l11.267-19.192
		C246.096,146.762,247.482,145.86,249.034,145.686z"/>
	<path d="M140.79,216.199c-0.954,1.626-0.907,3.651,0.122,5.232l24.765,38.11c1.028,1.58,2.857,2.445,4.73,2.232l41.45-4.838
		l22.533-38.383l-26.442-40.688c-1.027-1.581-2.86-2.445-4.733-2.233l-38.697,4.377c-1.556,0.176-2.939,1.075-3.733,2.427
		L140.79,216.199z M173.932,194.494l22.112-2.501c1.875-0.208,3.704,0.654,4.731,2.233l14.073,21.657
		c1.028,1.58,1.073,3.603,0.121,5.23l-11.267,19.191c-0.793,1.35-2.178,2.251-3.734,2.427l-22.391,2.682
		c-1.874,0.21-3.703-0.652-4.732-2.234l-14.073-21.655c-1.026-1.581-1.072-3.604-0.12-5.23l11.545-19.372
		C170.991,195.571,172.376,194.67,173.932,194.494L173.932,194.494z"/>
	<path d="M271.389,152.4l-16.586,1.877l-8.45,14.393l10.36,15.939l16.586-1.874l8.449-14.396L271.389,152.4z"/>
	<path d="M234.484,278.369c0.239-0.736,0.616-1.445,1.147-2.071c2.325-2.737,4.938-5.18,7.735-7.404l-3.016-4.64
		c-1.028-1.582-1.071-3.605-0.119-5.233l11.268-19.19c0.793-1.349,2.175-2.248,3.731-2.426l17.831-2.017
		c0.127-0.247,0.271-0.495,0.454-0.745c3.79-5.183,6.941-10.76,10.381-16.154l-40.626,4.596l-22.534,38.384l12.157,18.706
		C233.235,279.474,233.772,278.858,234.484,278.369z"/>
	<path d="M313.653,258.328l-21.943-33.765c-2.917,4.645-5.591,9.457-8.738,13.95l12.817,19.723c1.027,1.581,1.072,3.605,0.12,5.23
		l-11.268,19.192c-0.796,1.35-2.177,2.25-3.731,2.426l-22.113,2.502c-1.875,0.211-3.707-0.652-4.732-2.234l-3.441-5.295
		c-3.782,2.823-7.446,5.715-12.127,7.264c-1.262,0.417-2.371,0.336-3.29-0.066c-0.098,0.286-0.227,0.561-0.373,0.826
		c4.914,0.061,6.525,8.129,0.996,9.907c-1.85,0.595-3.724,1.065-5.612,1.474c2.047,1.575,2.792,4.577,0.486,7.24
		c-3.885,4.486-6.856,9.625-9.719,14.817l27.264-17.719l42.077-4.23c1.541-0.156,2.916-1.036,3.698-2.374l19.749-33.637
		C314.726,261.935,314.68,259.907,313.653,258.328z"/>
</g>
<rect x="192.93" y="205.721" transform="matrix(0.9782 0.2075 -0.2075 0.9782 47.9145 -36.3882)" width="8.961" height="8.96"/>
<rect x="198.522" y="199.919" transform="matrix(0.9782 0.2076 -0.2076 0.9782 46.2975 -37.2367)" width="4.033" height="4.033"/>
<rect x="204.172" y="208.902" transform="matrix(0.9783 0.207 -0.207 0.9783 48.1382 -38.1203)" width="4.033" height="4.034"/>
<g>
	<defs>
		
			<rect id="SVGID_1_" x="163.984" y="193.528" transform="matrix(-0.5449 -0.8385 0.8385 -0.5449 107.5071 491.9259)" width="46.525" height="46.522"/>
	</defs>
	<clipPath id="SVGID_2_">
		<use xlink:href="#SVGID_1_"  overflow="visible"/>
	</clipPath>
	<path clip-path="url(#SVGID_2_)" d="M190.665,216.097l-0.56,2.629l4.82,1.022l-0.434,2.048l-4.82-1.023l-0.559,2.63l4.819,1.022
		l-0.433,2.043l-4.82-1.023l-0.559,2.629l4.823,1.024l-0.437,2.047l-6.574-1.396l2.977-14.023l-14.031-2.979l1.395-6.572
		l2.042,0.433l-1.001,4.725l2.629,0.557l1.001-4.724l2.048,0.435l-1.003,4.723l2.629,0.56l1.001-4.725l2.049,0.433l-1.002,4.725
		l2.629,0.558l1.561-7.354l-15.268-3.241c-0.765-0.161-1.518,0.328-1.68,1.092l-5.192,24.471l24.478,5.194
		c0.768,0.162,1.518-0.326,1.681-1.09l3.24-15.267L190.665,216.097z M183.304,229.191l-11.402-2.419l2.418-11.396l11.402,2.42
		L183.304,229.191z"/>
	
		<rect x="174.254" y="218.599" transform="matrix(0.2077 -0.9782 0.9782 0.2077 -76.52 350.7877)" clip-path="url(#SVGID_2_)" width="8.064" height="8.063"/>
</g>
<g>
	<g id="XMLID_1_">
		<g>
			<path d="M492.167,19.75c13.207,10.124,14.687,28.857,4.722,40.989L383.365,184.229l17.863,13.698l-108.383,131.91
				c-10.106,12.299-24.775,20.621-42.429,24.062c-15.488,3.011-32.906,2.267-50.354-2.179l-6.614-1.679l-1.351-11.803
				L449.768,24.633C460.166,11.978,479.181,9.792,492.167,19.75z M441.694,67.801c1.227,10.629,18.273,8.668,17.047-1.961
				C457.525,55.219,440.478,57.17,441.694,67.801z M394.721,124.973c1.227,10.63,18.274,8.668,17.048-1.961
				C410.553,112.392,393.494,114.344,394.721,124.973z"/>
		</g>
		<g>
		</g>
	</g>
</g>
</svg>
