<?xml version="1.0" encoding="utf-8"?>
<!-- Generator: Adobe Illustrator 16.0.0, SVG Export Plug-In . SVG Version: 6.00 Build 0)  -->
<!DOCTYPE svg PUBLIC "-//W3C//DTD SVG 1.1//EN" "http://www.w3.org/Graphics/SVG/1.1/DTD/svg11.dtd">
<svg version="1.1" xmlns="http://www.w3.org/2000/svg" xmlns:xlink="http://www.w3.org/1999/xlink" x="0px" y="0px" width="512px"
	 height="512px" viewBox="0 0 512 512" enable-background="new 0 0 512 512" xml:space="preserve">
<g id="Capa_2">
	<g id="XMLID_1_">
		<g>
			<path d="M398.313,135.411c3.746,19.84,1.851,40.332-5.464,59.155L344.243,319.54h-189.41l-48.606-124.981
				c-7.314-18.817-9.209-39.308-5.464-59.148h17.093c-3.985,17.699-2.602,36.181,3.973,53.084l16.341,42.012l15.602-6.064
				l-16.341-42.018c-5.603-14.402-6.582-30.193-2.811-45.183c0.151-0.613,0.334-1.219,0.505-1.832h72.565
				c18.482-0.019,33.459-14.996,33.478-33.478V60.085h16.739v41.848c0.019,18.482,14.995,33.459,33.478,33.478H398.313z
				 M313.254,220.413c1.333-7.207-1.687-14.49-4.289-21.104c-1.554-3.941-3.448-7.807-6.449-10.858
				c-2.665-2.716-6.393-3.594-10.043-4.024c-8.287-0.979-16.65,0.025-24.932,0.569c-2.021,0.132-3.045,1.781-3.045,3.367
				l-0.53,0.006c0-0.215,0-0.43-0.007-0.638c-0.057-2.205-2.065-3.398-3.847-3.026c-0.095-0.221-0.215-0.448-0.372-0.669
				c-3.62-5.167-6.058-10.965-8.452-16.783c1.51-0.732,2.482-2.47,1.295-4.276c-1.908-2.893-4.125-5.388-6.695-7.34
				c-0.07-0.063-0.146-0.114-0.221-0.164c-0.076-0.057-0.158-0.114-0.24-0.177c-0.322-0.392-0.758-0.701-1.301-0.878
				c-2.798-1.756-5.963-2.905-9.563-3.291c-7.53-0.802-15.103,0.998-22.607,1.446c-1.276,0.076-2.154,0.758-2.627,1.642
				c-0.512-0.044-1.023,0.044-1.484,0.31c-0.815-0.221-1.718-0.12-2.47,0.31c-1.705,0.96-2.457,2.779-3.43,4.416
				c-1.421,2.381-2.773,4.807-4.093,7.251c-2.52,4.681-4.75,9.519-6.626,14.497c-0.486,1.295-0.107,2.337,0.663,3.007
				c-0.221,0.928-0.347,1.857-0.398,2.773c-0.101,0.366-0.114,0.777-0.019,1.225c0.177,7.447,5.356,14.326,9.336,20.276
				c0.184,0.271,0.392,0.499,0.613,0.695c0.196,0.55,0.379,1.105,0.55,1.661c-4.82,7.125-7.89,15.141-11.269,23.087
				c-0.411,0.966-0.341,1.889,0.006,2.678c-1.402,2.078-2.704,4.22-3.512,6.639c-1.623,4.833,0.455,9.778,2.59,14.061
				c0.107,0.209,0.221,0.411,0.329,0.619c1.409,3.127,3.234,6.02,5.249,8.799c0.303,0.442,0.594,0.885,0.903,1.327
				c0.082,0.215,0.189,0.43,0.329,0.65c2.306,3.575,4.826,7.018,7.712,10.126c-0.24,1.162,0.114,2.425,1.421,3.221
				c3.386,2.054,7.473,2.129,11.332,1.737c3.139,0.48,6.335,0.524,9.665,0.184c6.342-0.645,12.519-2.249,18.918-2.331
				c1.428-0.02,2.653-0.954,3.044-2.318c0.954-3.266,2.015-6.493,3.184-9.684c4.403-6.335,8.66-12.778,13.095-19.095
				c5.255,0.12,10.511-0.126,15.766-0.316c0.063,0.164,0.107,0.329,0.133,0.512c0.31,2.767-0.72,5.798-1.282,8.477
				c-1.137,5.457-2.608,12.405,1.73,16.865c3.81,3.91,9.235,4.908,13.392,1.055c3.544-3.278,5.003-8.919,5.799-13.498
				c0.423-2.4,0.492-4.751,0.563-7.183c0.107-3.878,0.966-7.561,2.33-11.174C306.495,236.843,311.637,229.149,313.254,220.413z"/>
			<path d="M393.728,118.671H291.386c-9.241-0.013-16.732-7.498-16.738-16.739V60.085h72.224l15.614,13.385
				C376.647,85.572,387.411,101.149,393.728,118.671z"/>
			<rect x="274.647" y="18.237" width="66.956" height="25.108"/>
			<path fill="#5E5E5E" d="M306.356,210.825c-0.025-0.013-0.051-0.019-0.076-0.025c-0.53-0.126-1.061-0.234-1.598-0.329
				c1.067-1.775,0.158-4.542-2.609-4.838c-2.186-0.24-4.371-0.329-6.563-0.354c0.051-1.162-0.556-2.356-1.617-3.006
				c-1.168-4.018-6.184-5.167-9.961-5.3c-4.371-0.151-9.64,1.661-13.865,0.348c-0.973-0.297-1.807-0.146-2.444,0.265
				c-0.107-0.17-0.209-0.341-0.304-0.499c-1.099-1.832-3.006-1.895-4.358-0.954c0.639-2.552,1.018-5.161,1.005-7.763l0.53-0.006
				c0,1.573,1.018,3.083,3.045,2.95c5.988-0.392,11.951-0.96,17.958-0.96c2.943-0.006,5.906,0.12,8.786,0.739
				c2.836,0.613,4.485,2.299,6.014,4.706c1.781,2.811,2.931,5.988,4.023,9.108C304.992,206.82,305.763,208.81,306.356,210.825z"/>
			<path fill="#5E5E5E" d="M305.857,221.942c0.253-0.076,0.474-0.184,0.688-0.31c-0.676,2.356-1.681,4.643-2.646,6.803
				c-1.883,4.213-3.847,8.389-5.647,12.633c-1.313,3.095-2.368,6.203-2.943,9.519c-0.568,3.316-0.41,6.639-0.727,9.961
				c-0.392,4.056-1.604,9.374-4.699,12.241c-1.314,1.213-3.178-0.536-4.105-1.383c-1.839-1.681-1.03-5.508-0.695-7.631
				c0.67-4.137,2.754-9.424,2.085-13.915c0.334-0.006,0.669-0.013,1.01-0.013c4.068-0.019,4.074-6.335,0-6.317
				c-1.585,0.006-3.164,0.044-4.743,0.088c-4.883-3.809-13.044-3.657-19.563-2.823c-1.573-3.291-2.16-7.131-3.708-10.441
				c-2.18-4.662-5.236-8.9-8.129-13.183c3.24-3.392,5.66-7.643,7.599-11.844c0.392-0.84,0.764-1.699,1.124-2.571
				c-0.612,3.114-1.333,6.196-1.428,9.399c-0.019,0.606,0.107,1.112,0.335,1.542c-0.758,3.152,0.727,6.563,1.978,9.393
				c1.01,2.287,2.268,4.517,3.694,6.607c-0.063,0.979,0.272,1.971,1.105,2.627c-0.581,2.906,3.948,5.06,5.932,2.059
				c0.082-0.12,0.164-0.24,0.253-0.36c0.322,0.057,0.644,0.114,0.973,0.158c0.979,1.491,3.228,2.344,5.021,0.84
				c0.139-0.12,0.278-0.24,0.423-0.366c6.696,0.233,13.581-0.765,19.657-2.609c2.426-0.733,3.354-4.542,0.752-5.773
				c-0.916-0.436-1.845-0.815-2.779-1.149c0.499-0.486,0.865-1.144,1.011-1.857C300.438,223.117,303.173,222.744,305.857,221.942z"
				/>
			<rect x="241.169" y="18.237" width="16.739" height="25.108"/>
			<path fill="#5E5E5E" d="M255.217,245.673c0.076,0.177,0.12,0.36,0.158,0.543c-2.381,4.491-4.573,9.09-6.55,13.777
				c-0.783,0.12-1.547,0.587-2.116,1.522c-1.383,2.261-2.836,4.479-4.213,6.739c-0.404,0.67-0.537,1.327-0.461,1.927
				c-0.24,0.253-0.474,0.512-0.739,0.745c-2.394,2.11-6.443,2.388-9.418,3.146c-2.495,0.626-4.984,1.271-7.485,1.845
				c-0.392-0.051-0.783-0.107-1.168-0.164c-3.215-0.461-6.412-1.093-9.589-1.788c-1.478-0.328-2.64,0.316-3.31,1.295
				c-0.006-0.006-0.013,0-0.025,0c-0.107-0.126-0.215-0.252-0.322-0.379c0.019-0.499-0.082-1.029-0.347-1.572
				c-2.363-4.801-5.635-9.033-8.534-13.505c-2.659-4.1-5.091-8.635-4.219-13.65c1.611-9.235,9.538-17.156,16.05-23.34
				c0.91-0.865,1.112-1.889,0.872-2.811c4.333,0.051,8.647-0.164,13.056-0.114c5.464,0.051,11.218,0.783,16.575-0.606
				c3.291,5.59,5.224,11.85,7.58,17.901c-0.347,0.783-0.322,1.718,0.329,2.678C252.577,241.694,254.39,243.595,255.217,245.673z
				 M246.658,243.368c1.68-1.232,1.807-4.289-0.265-5.3c-1.099-0.543-2.217-0.916-3.348-1.156c0.07-0.069,0.139-0.133,0.202-0.202
				c1.737-1.983,0.676-5.451-2.236-5.395c-1.687,0.038-3.461,0.259-5.243,0.449c-3.088-3.304-7.58-3.702-11.85-2.065
				c-0.152-0.329-0.348-0.638-0.594-0.91c-1.447-1.643-4.156-1.87-6.197-1.491c-8.445,1.573-9.064,12.134-13.726,17.579
				c-1.409,1.655-0.758,4.548,1.062,5.299c0.057,0.076,0.113,0.158,0.177,0.228c0.082,3.979,2.767,8.048,5.11,10.997
				c3.575,4.498,7.668,6.544,13.303,6.886c2.887,0.17,6.728-0.14,8.944-1.908c7.447-2.084,10.176-13.511,14.617-18.722
				C247.846,246.216,247.618,244.467,246.658,243.368z"/>
			<path fill="#5E5E5E" d="M241.561,160.532c3.917,8.167,6.576,17.011,11.414,24.698c-5.249,6.348-8.685,13.713-12.166,21.123
				c-0.025,0.057-0.044,0.113-0.07,0.17c-1.143-0.278-2.451-0.164-3.569-0.158c-3.07,0.013-6.133,0.12-9.203,0.228
				c-1.314,0.044-2.64,0.082-3.973,0.126l-0.057-1.889c1.307-0.044,2.615-0.221,3.777-0.442c1.573,0.12,3.79,0.114,4.895-1.13
				c0.442-0.505,0.72-1.011,0.866-1.516c1.061-0.499,2.04-1.168,2.95-2.009c0.069-0.063,0.133-0.132,0.202-0.196
				c1.061,0.436,2.312,0.316,3.247-0.726c1.851-2.06,2.773-4.321,3.758-6.866c0.341-0.878,0.095-1.851-0.455-2.628
				c0.151-0.512,0.31-1.03,0.448-1.547c2.337,0.177,4.744-2.129,3.058-4.58c-2.097-2.981-4.131-5.995-6.399-8.85
				c-0.101-0.177-0.196-0.348-0.297-0.524c2.116-1.554,1.257-4.681-1.086-5.552c-1.901-0.701-4.036-0.891-6.127-0.96
				c-0.417-1.011-1.276-1.781-2.445-1.781l-0.013-1.636c1.92,0,3.847-1.775,3.26-3.866
				C236.229,160.235,238.889,160.45,241.561,160.532z"/>
			<path fill="#5E5E5E" d="M234.783,178.13c0.379,1.029,0.796,2.04,1.27,3.019c-1.396,2.236-2.552,4.599-3.759,6.961
				c-0.638,0.985-1.188,2.053-1.661,3.215c-2.306,0.025-4.592,0.133-6.885,0.524c-0.916,0.151-1.528,0.594-1.889,1.168
				c-0.777-2.236-1.813-4.384-2.969-6.456c-0.006-0.019-0.019-0.032-0.025-0.044c-0.367-1.825-0.651-3.67-0.916-5.521
				c-0.025-0.17-0.076-0.335-0.139-0.493c0.291-1.074,0.625-2.16,1.074-3.177c0.184-0.404,0.392-0.796,0.619-1.181
				c0.139-0.24,0.278-0.392,0.385-0.48c1.548,0.12,3.165,0.777,4.7,0.91c2.04,0.177,5.931-2.078,7.378,0.12
				C232.692,177.789,233.753,178.193,234.783,178.13z"/>
			<path fill="#5E5E5E" d="M232.717,248.674c-0.265,0.101-0.53,0.208-0.79,0.328c-0.057,0-0.12,0-0.183,0
				c-0.177,0-0.348,0.019-0.512,0.044c-0.025,0-0.044,0.006-0.069,0.006c-1.207,0.202-1.971,1.017-2.293,1.996
				c-0.556,0.511-1.074,1.08-1.554,1.718c-0.48,0.645-0.903,1.327-1.289,2.028c-1.744-0.625-3.468-1.08-4.813-1.465
				c-0.398-0.114-0.771-0.152-1.112-0.126c-0.929-1.598-1.908-3.165-2.893-4.737c-0.354-0.563-0.796-0.948-1.276-1.181
				c0.006-0.057,0.019-0.114,0.019-0.177c0.006-0.334,0.032-0.676,0.069-1.01c0.006-0.089,0.019-0.152,0.025-0.196
				c0.013-0.113,0.032-0.221,0.044-0.334c0.076-0.512,0.145-1.023,0.202-1.535c0.07-0.031,0.133-0.057,0.202-0.088
				c2.843-1.427,5.647-2.943,8.528-4.289c0.663-0.031,1.32-0.265,1.863-0.65c0.853,0.196,1.661,0.354,2.369,0.486
				c0.512,0.101,1.048,0.189,1.585,0.265c-0.082,0.48-0.101,0.979-0.032,1.459C231.157,243.797,231.732,246.311,232.717,248.674z"/>
			<path fill="#5E5E5E" d="M230.317,163.886l0.013,1.636c-0.341,0-0.714,0.069-1.105,0.214c-3.398,1.264-7.024,1.283-10.492,1.895
				c-1.08-1.762-3.733-2.362-5.293-0.019c-0.84,1.263-1.687,2.526-2.526,3.79c-0.348,0.524-0.474,1.093-0.436,1.655
				c-1.699,2.261-2.943,5.021-4.093,7.94c-0.189,0.486-0.233,0.947-0.158,1.377c-0.107,0.246-0.196,0.486-0.265,0.727
				c-0.215,0.777-0.089,1.642,0.082,2.507c-1.542,0.499-2.805,1.996-2.186,3.809c0.069,0.208,0.151,0.417,0.233,0.619
				c-1.737,0.291-3.322,2.097-2.76,4.011c0.088,0.291,0.183,0.582,0.278,0.878c-1.301-2.451-2.564-4.915-3.638-7.479
				c0.006-0.727,0.069-1.453,0.202-2.192c0.347-0.234,0.663-0.556,0.929-0.979c2.21-3.493,3.765-7.447,5.521-11.263
				c0.259-0.411,0.505-0.809,0.745-1.213c1.276-2.186,2.508-4.402,3.695-6.639c0.575-0.771,1.188-1.516,1.864-2.217
				c0.076-0.083,0.158-0.152,0.24-0.228c0.253-0.019,0.512-0.069,0.79-0.152c2.59-0.814,5.319-1.105,8.022-1.263
				c1.604-0.095,6.759-0.619,7.782,1.074C228.403,163.444,229.357,163.886,230.317,163.886z"/>
			<path d="M224.43,60.085v41.848c-0.013,9.241-7.498,16.726-16.739,16.739h-65.592c1.585-2.83,3.361-5.552,5.313-8.148
				l-13.354-10.087c-3.967,5.255-7.353,10.928-10.1,16.91c-0.202,0.436-0.379,0.884-0.575,1.326c-5.988,0-12.052-0.208-18.021,0.063
				c5.875-17.365,17.377-33.39,31.229-45.265l17.964-15.4c1.851-1.585,2.918-3.91,2.918-6.354V18.237h66.956v25.108h-50.217v16.739
				H224.43z M166.936,91.548l-10.89-12.709l-8.572,7.346c-1.434,1.232-2.842,2.514-4.194,3.822l11.648,12.021
				c1.105-1.067,2.261-2.123,3.437-3.127L166.936,91.548z"/>
			<path fill="#5E5E5E" d="M223.938,204.83l0.057,1.889c-4.832,0.139-9.728,0.322-14.471,1.118c-0.512-1.036-1.497-1.813-2.546-1.92
				c-0.631-1.636-1.345-3.234-2.122-4.801c0.644,0.234,1.358,0.259,2.027,0.088c0.746,0.796,1.535,1.554,2.419,2.236
				c2.04,1.579,4.958,0.815,5.344-1.826c0.587,1.32,1.964,2.28,3.531,1.845C219.629,204.583,221.777,204.893,223.938,204.83z"/>
		</g>
		<g>
		</g>
	</g>
	<g id="surface1">
		<path d="M219.073,506.908c-20.444-67.366,22.754-91.964,22.754-91.964c-3.023,35.947,17.405,63.953,17.405,63.953
			c7.514-2.268,21.853-12.861,21.853-12.861c0,12.861-7.566,40.856-7.566,40.856s26.489-20.482,34.827-54.501
			c8.328-34.018-15.861-68.168-15.861-68.168c1.457,24.076-6.688,47.757-22.647,65.85c0.799-0.923,1.47-1.946,1.983-3.056
			c2.867-5.734,7.469-20.637,4.774-55.147c-3.793-48.445-47.688-68.873-47.688-68.873c3.784,29.517-7.562,36.317-34.136,92.344
			C168.196,471.357,219.073,506.908,219.073,506.908z"/>
	</g>
</g>
<g id="Capa_3">
	<g>
		<path d="M205.578,210.733c0.581,1.18,1.779,1.933,3.095,1.942l33.864,0.243l14.092-27.681l-12.746-26.189
			c-0.578-1.181-1.776-1.933-3.091-1.941l-31.72-0.228c-1.315-0.009-2.523,0.725-3.121,1.897l-12.33,24.454
			c-0.497,0.974-0.504,2.126-0.024,3.107L205.578,210.733z M205.678,183.318l7.047-14.075c0.598-1.171,1.804-1.906,3.121-1.897
			l18.023,0.13c1.316,0.009,2.512,0.762,3.092,1.942l6.845,14.174c0.48,0.979,0.473,2.132-0.022,3.107l-7.045,13.841
			c-0.599,1.172-1.805,1.907-3.12,1.896l-18.025-0.129c-1.315-0.011-2.51-0.76-3.091-1.942l-6.847-13.94
			C205.174,185.442,205.182,184.289,205.678,183.318z"/>
		<path d="M205.129,273.476c0.579,1.181,1.777,1.933,3.094,1.94l31.719,0.229c1.314,0.01,2.522-0.725,3.118-1.896l13.119-26.002
			l-13.692-27.882l-33.864-0.242c-1.315-0.01-2.524,0.725-3.121,1.897l-12.329,24.222c-0.496,0.974-0.504,2.125-0.021,3.107
			L205.129,273.476z M205.229,245.826l7.045-13.84c0.599-1.172,1.804-1.906,3.12-1.897l18.025,0.13
			c1.316,0.009,2.511,0.76,3.092,1.94l6.847,13.942c0.481,0.979,0.474,2.133-0.022,3.107l-7.048,14.073
			c-0.598,1.172-1.803,1.904-3.12,1.896l-18.024-0.128c-1.315-0.011-2.512-0.762-3.092-1.942l-6.845-14.172
			C204.725,247.954,204.734,246.801,205.229,245.826L205.229,245.826z"/>
		<path d="M218.184,172.879l-5.284,10.382l5.134,10.456l13.266,0.094l5.287-10.381l-5.136-10.457L218.184,172.879z"/>
		<path d="M217.485,237.167l-5.284,10.382l5.134,10.455l13.266,0.096l5.287-10.382l-5.137-10.457L217.485,237.167z"/>
		<path d="M299.224,190.933c-0.581-1.18-1.778-1.933-3.093-1.941l-33.499-0.24l-14.09,27.682l13.691,27.883l17.871,0.129
			c1.919,0.014,3.46,1.577,3.446,3.497l-0.15,21.069c2.891,1.342,3.273,8.26,6.896,6.995c4.405-1.536,4.991-5.589,6.996-6.896
			l0.175-24.54l13.714-26.134c0.503-0.958,0.519-2.097,0.039-3.067L299.224,190.933z M299.126,218.349l-7.045,13.842
			c-0.599,1.173-1.807,1.908-3.121,1.897l-17.563-0.125c-1.316-0.011-2.512-0.764-3.094-1.944l-6.845-13.94
			c-0.48-0.981-0.473-2.131,0.021-3.105l7.046-13.842c0.597-1.172,1.806-1.908,3.121-1.897l17.562,0.125
			c1.314,0.01,2.512,0.761,3.093,1.941l6.845,13.941C299.627,216.227,299.62,217.376,299.126,218.349z"/>
	</g>
	<rect x="279.348" y="205.262" transform="matrix(0.7121 -0.7021 0.7021 0.7121 -64.9823 258.3018)" width="6.253" height="6.254"/>
	<rect x="277.456" y="201.981" transform="matrix(0.7121 -0.7021 0.7021 0.7121 -62.511 254.329)" width="2.814" height="2.814"/>
	<rect x="284.86" y="202.144" transform="matrix(0.7118 -0.7024 0.7024 0.7118 -60.4662 259.7455)" width="2.815" height="2.814"/>
	<g>
		<defs>
			
				<rect id="SVGID_1_" x="266.168" y="200.607" transform="matrix(-1 -0.0072 0.0072 -1 563.244 435.7012)" width="32.471" height="32.468"/>
		</defs>
		<clipPath id="SVGID_2_">
			<use xlink:href="#SVGID_1_"  overflow="visible"/>
		</clipPath>
		<path clip-path="url(#SVGID_2_)" d="M283.314,214.584l1.316,1.337l2.449-2.416l1.025,1.04l-2.449,2.414l1.317,1.337l2.448-2.414
			l1.023,1.037l-2.449,2.414l1.315,1.336l2.451-2.415l1.024,1.041l-3.341,3.292l-7.021-7.125l-7.131,7.027l-3.292-3.34l1.038-1.022
			l2.366,2.399l1.335-1.317l-2.366-2.398l1.04-1.025l2.366,2.399l1.337-1.315l-2.368-2.4l1.041-1.027l2.366,2.401l1.336-1.317
			l-3.684-3.736l-7.757,7.647c-0.388,0.383-0.394,1.009-0.011,1.397l12.257,12.433l12.436-12.259
			c0.391-0.385,0.395-1.01,0.013-1.398l-7.646-7.757L283.314,214.584z M288.11,223.905l-5.792,5.711l-5.708-5.79l5.795-5.711
			L288.11,223.905z"/>
		
			<rect x="279.547" y="221.493" transform="matrix(-0.7021 -0.7121 0.7121 -0.7021 320.8611 582.8569)" clip-path="url(#SVGID_2_)" width="5.628" height="5.627"/>
	</g>
</g>
</svg>
