<svg enable-background="new 0 0 145.1 133.7" viewBox="0 0 145.1 133.7" xmlns="http://www.w3.org/2000/svg"><path d="m99.3 121v2.2c-1.5 0-3 0-4.6 0 .4-.2.7-.4 1.1-.6 1.1-.5 2.2-1.1 3.3-1.6.1.1.1 0 .2 0z" fill="#fff"/><path d="m99.3 114.6v6.4c-.1 0-.1 0-.2.1-1.1.5-2.2 1.1-3.3 1.6-.4.2-.7.4-1.1.6h-.1s0 0-.1 0c-1.5-.6-3-1.2-4.5-1.9-.1 0-.2 0-.2 0-.7.3-1.4.6-2.1.9-.8.3-1.6.7-2.3 1 0 0 0 0-.1 0l-.1-.1c-1.4-.7-2.9-1.4-4.3-2.1h-.1c0-2.1 0-4.3 0-6.4 0 0 .1 0 .1-.1 1.2-.7 2.5-1.5 3.7-2.2.1-.1.1-.2.1-.3 0-1.4 0-2.9 0-4.3 0-.1 0-.2.2-.2 1.6-.9 3.2-1.8 4.8-2.7.1-.1.2-.1.3-.2h.1c.1 0 .1.1.1.1 1.6.9 3.3 1.8 4.9 2.7.1.1.2.2.2.3v4.3c0 .1 0 .2.1.3.8.5 1.6 1 2.5 1.5.5.2.9.5 1.4.7zm-1.3 5.4c0-.7 0-1.5 0-2.2 0-.8 0-1.5 0-2.2 0-.1-.1-.2-.1-.2-1-.6-2.1-1.2-3.1-1.9-.1 0-.1 0-.2 0-1.2.6-2.5 1.3-3.7 1.9-.1 0-.1.1-.1.2v4.5c0 .1 0 .1.1.2 1.2.5 2.5 1 3.7 1.5h.2c1-.5 2-1 3-1.4.1-.2.2-.3.2-.4zm-4-7.9c0-.6 0-1.1 0-1.7s0-1.2 0-1.8c0-.1 0-.2-.1-.2-1.2-.7-2.5-1.3-3.7-2-.1-.1-.2-.1-.3 0-1.2.7-2.5 1.4-3.7 2-.1.1-.1.1-.1.2v3.5c0 .1 0 .2.1.2 1.2.6 2.5 1.3 3.7 1.9h.2c1.2-.6 2.5-1.3 3.7-1.9.2 0 .2-.1.2-.2zm-4.6 7.9c0-1.5 0-2.9 0-4.4 0-.1 0-.2-.1-.2-1.2-.6-2.4-1.2-3.7-1.9-.1-.1-.2-.1-.3 0-1 .6-2 1.2-3.1 1.8-.1.1-.1.1-.1.2v2.2s0 1.5 0 2.2c0 .1 0 .2.1.2 1 .5 2.1 1 3.1 1.5h.2c1.2-.5 2.5-1 3.7-1.5.1.1.2 0 .2-.1z" fill="#657c38"/><path d="m99.3 104.7v9.9c-.4-.3-.9-.5-1.4-.8-.8-.5-1.6-1-2.5-1.5-.1-.1-.1-.1-.1-.3 0-1.4 0-2.8 0-4.3 0-.2-.1-.2-.2-.3-1.6-.9-3.3-1.8-4.9-2.7-.1 0-.1-.1-.1-.1 3 .1 6.1.1 9.2.1z" fill="#fff"/><path d="m97.9 117.8v2.2c0 .1 0 .2-.2.3-1 .5-2 1-3 1.4-.1 0-.2 0-.2 0-1.2-.5-2.5-1-3.7-1.5-.1 0-.1-.1-.1-.2 0-1.5 0-3 0-4.5 0-.1.1-.1.1-.2 1.2-.6 2.5-1.3 3.7-1.9h.2c1 .6 2.1 1.2 3.1 1.9.1 0 .1.1.1.2.1.8 0 1.5 0 2.3z" fill="#fff"/><path d="m94.7 123.2c-3.1 0-6.2 0-9.2 0 .8-.3 1.6-.7 2.3-1s1.4-.6 2.1-.9c.1 0 .2-.1.2 0 1.5.7 3 1.3 4.6 1.9-.1 0-.1 0 0 0z" fill="#fff"/><path d="m94 110.4v1.7c0 .1 0 .2-.1.2-1.2.6-2.5 1.3-3.7 1.9-.1 0-.2 0-.2 0-1.2-.6-2.5-1.3-3.7-1.9-.1-.1-.1-.1-.1-.2 0-1.2 0-2.3 0-3.5 0-.1 0-.2.1-.2 1.2-.7 2.5-1.4 3.7-2 .1-.1.2 0 .3 0 1.2.7 2.5 1.3 3.7 2 .1.1.1.1.1.2-.1.6-.1 1.2-.1 1.8z" fill="#fff"/><path d="m90 104.7c-.1.1-.2.1-.3.2-1.6.9-3.2 1.8-4.8 2.7-.1.1-.2.1-.2.2v4.3c0 .1 0 .2-.1.3-1.2.7-2.5 1.5-3.7 2.2 0 0-.1 0-.1.1 0-3.3 0-6.6 0-9.9 3-.1 6.1-.1 9.2-.1z" fill="#fff"/><path d="m89.4 115.6v4.4c0 .1 0 .2-.1.2-1.2.5-2.5 1-3.7 1.5-.1 0-.1 0-.2 0-1-.5-2.1-1-3.1-1.5-.1-.1-.1-.1-.1-.2 0-.8 0-1.5 0-2.2s0-1.5 0-2.2c0-.1 0-.2.1-.2 1-.6 2-1.2 3.1-1.8.1-.1.2-.1.3 0 1.2.6 2.4 1.2 3.7 2-.1-.2 0-.1 0 0z" fill="#fff"/><path d="m85.3 123.2c-1.5 0-3 0-4.6 0 0-.7 0-1.5 0-2.2h.1c1.4.7 2.9 1.4 4.3 2.1.2.1.2.1.2.1z" fill="#fff"/><g stroke-miterlimit="10" stroke-width="2"><path d="m109.1 2c-1-.3-2-1-3-1-22.6 0-45.3 0-68 0-.5 0-1 .2-1.7.4-2.1 3.9-4.2 7.7-6.3 11.6" fill="none" stroke="#7a6553" stroke-linecap="round" stroke-linejoin="round"/><path d="m33.1 127c1 1.8 2.1 3.6 3.3 5.7h72.4c1-1.7 2.1-3.7 3.3-5.7" fill="none" stroke="#7a6553" stroke-linecap="round" stroke-linejoin="round"/><path d="m85.1 91.4v11.1c7.6-2.2 15.8 1.6 18 7.9 2.3 6.6-1.3 13.4-9 17" fill="none" stroke="#637d37" stroke-linecap="round" stroke-linejoin="round"/><path d="m84.1 85.9c-1-6.4-5.9-10.5-12.5-10.5-6.8 0-11.5 4-12.5 10.5" fill="none" stroke="#637d37" stroke-linecap="round" stroke-linejoin="round"/><path d="m59.6 86.4h27.2v4.2c-10.2 0-20.2 0-30.4 0-.4-2.2-1.4-4.4 2.2-4.2" fill="none" stroke="#637d37" stroke-linecap="round" stroke-linejoin="round"/><path d="m62.1 91.4c0 2.7-.7 5.6.2 7.9 1.6 4.2 5 6.9 9.8 7.1" fill="none" stroke="#637d37" stroke-linecap="round" stroke-linejoin="round"/><path d="m58.1 91.4c-.2 5.3-.3 10.7-.5 16" fill="none" stroke="#637d37" stroke-linecap="round" stroke-linejoin="round"/><path d="m76.1 111.4c-5.2-.4-10.4-.7-16.2-1.1-.2 2.1-.5 5.1-.8 8.1" fill="none" stroke="#637d37" stroke-linecap="round" stroke-linejoin="round"/><path d="m6.1 58c-1.7 3.1-3.4 6.3-5.1 9.5 1.1 1.9 2.1 3.7 3.1 5.5" fill="none" stroke="#7a6553" stroke-linecap="round" stroke-linejoin="round"/><path d="m59.6 108.9c-.8-.5-1.7-1-2.7-1.6-6.3 3-4.3 9.9-7.1 15.1 2.4 0 4.6.1 6.8-.1.6-.1 1-1.2 1.5-1.9" fill="none" stroke="#637d37" stroke-linecap="round" stroke-linejoin="round"/><path d="m140.1 59c1.8 4.2 6.7 7.8 2 13" fill="none" stroke="#696969" stroke-linecap="round" stroke-linejoin="round"/><path d="m19.1 101c2 3.7 4 7.3 6 11" fill="none" stroke="#000" stroke-linecap="round" stroke-linejoin="round"/><path d="m26.1 114c2 3.7 4 7.3 6 11" fill="none" stroke="#000" stroke-linecap="round" stroke-linejoin="round"/><path d="m36.1 2.2c-11.7 21.8-23.4 43.6-35.1 65.3" stroke="#7a6553" stroke-linecap="round" stroke-linejoin="round"/><path d="m12.1 88c2 3.7 4 7.3 6 11" fill="none" stroke="#000" stroke-linecap="round" stroke-linejoin="round"/><path d="m21.1 30c-5.3 10-10.7 19.9-16 29.9" fill="none" stroke="#7a6553"/><path d="m58.6 122.4h19.2c3.2 1.9 5.7 3.5 8.3 5" fill="none" stroke="#637d37" stroke-linecap="round" stroke-linejoin="round"/><path d="m4.1 73c10.2 19 20.4 37.9 30.6 56.9" fill="none" stroke="#696969" stroke-linecap="round" stroke-linejoin="round"/><path d="m84.6 102.9c-6.7 3.1-8.4 8.7-7.5 15.5" fill="none" stroke="#637d37" stroke-linecap="round" stroke-linejoin="round"/><path d="m70.1 112.4v9.5" fill="none" stroke="#637d37" stroke-linecap="round" stroke-linejoin="round"/><path d="m73.1 112.4v9.5" fill="none" stroke="#637d37" stroke-linecap="round" stroke-linejoin="round"/><path d="m143.4 70.2c-10.4 18.9-20.9 37.8-31.3 56.7" fill="#696969" stroke="#7a6553" stroke-linecap="round" stroke-linejoin="round"/><path d="m109.1 2c11 20.2 22 40.3 33 60.5" fill="#696969" stroke="#7a6553"/><path d="m80.8 90.5v7" fill="none" stroke="#637d37" stroke-linecap="round" stroke-linejoin="round"/><path d="m81.1 98.4c-4.2 7.5-6.8 5.9-9 8" fill="none" stroke="#637d37" stroke-linecap="round" stroke-linejoin="round"/><path d="m53.1 115.4c1.7.2 3.3.3 5 .5" fill="none" stroke="#637d37" stroke-linecap="round" stroke-linejoin="round"/><path d="m94.1 127.4c-5.3 0-2.9 0-8 0" fill="none" stroke="#637d37" stroke-linecap="round" stroke-linejoin="round"/></g></svg>